<?xml version="1.0" encoding="UTF-8"?>
<svg width="667px" height="375px" viewBox="0 0 667 375" version="1.1" xmlns="http://www.w3.org/2000/svg" xmlns:xlink="http://www.w3.org/1999/xlink">
    <!-- Generator: Sketch 64 (93537) - https://sketch.com -->
    <title>bg_sea</title>
    <desc>Created with Sketch.</desc>
    <g id="iPhone-8" stroke="none" stroke-width="1" fill="none" fill-rule="evenodd">
        <g id="New-placeholder-active---scene-05" fill-rule="nonzero">
            <g id="Group" transform="translate(-73.000000, 0.000000)">
                <g id="bg_sea" transform="translate(-42.480469, -16.601562)">
                    <g id="sky">
                        <rect id="Rectangle" fill="#CDEBFB" x="0" y="0" width="876.953125" height="173.339844"></rect>
                        <circle id="Oval" fill="#FFF467" cx="783.203125" cy="78.6132812" r="25.8789062"></circle>
                        <path d="M201.245117,174.316406 C201.245117,174.316406 183.666992,165.039063 188.061523,146.972656 C192.456055,128.90625 215.893555,134.765625 215.893555,134.765625 C215.893555,134.765625 210.03418,121.582031 219.311523,114.746094 C228.588867,107.910156 239.819336,115.722656 239.819336,115.722656 C239.819336,115.722656 238.842773,107.421875 244.213867,105.46875 C249.72168,103.466797 254.956055,110.839844 254.956055,110.839844 C254.956055,110.839844 251.674805,95.4052734 267.651367,91.796875 C282.788086,88.3789062 286.206055,102.539062 286.206055,102.539062 C286.206055,102.539062 295.483398,87.890625 310.620117,93.75 C329.833984,101.186523 323.31543,120.605469 323.31543,120.605469 C323.31543,120.605469 330.151367,112.792969 337.963867,118.164063 C343.999023,122.314453 343.334961,129.394531 343.334961,129.394531 C343.334961,129.394531 356.030273,115.722656 370.678711,125.976563 C381.743164,133.725586 376.049805,147.949219 376.049805,147.949219 C376.049805,147.949219 381.90918,149.414063 381.90918,154.296875 C381.90918,161.132813 375.073242,162.597656 375.073242,162.597656 C375.073242,162.597656 382.548828,171.484375 377.514648,179.199219 C370.19043,190.429688 356.518555,180.664063 356.518555,180.664063 C356.518555,180.664063 360.424805,187.011719 354.56543,189.941406 C348.706055,192.871094 344.311523,186.035156 344.311523,186.035156 C344.311523,186.035156 345.947266,196.230469 330.151367,201.660156 C314.526367,207.03125 308.178711,196.777344 308.178711,196.777344 C308.178711,196.777344 307.124023,206.738281 291.577148,204.589844 C277.416992,202.636719 276.928711,190.917969 276.928711,190.917969 C276.928711,190.917969 272.53418,201.049805 262.280273,199.707031 C251.049805,198.242188 250.561523,186.035156 250.561523,186.035156 C250.561523,186.035156 249.09668,194.946289 239.331055,194.335938 C231.518555,193.847656 230.053711,186.035156 230.053711,186.035156 C230.053711,186.035156 226.147461,191.894531 219.799805,189.453125 C215.244141,187.700195 216.381836,180.175781 216.381836,180.175781 C216.381836,180.175781 211.987305,186.523438 205.151367,183.59375 C199.316406,181.083984 201.245117,174.316406 201.245117,174.316406 Z" id="Path" fill="#EDF2F5"></path>
                        <path d="M567.944336,155.761719 C567.944336,155.761719 550.366211,146.484375 554.760742,128.417969 C559.155273,110.351562 582.592773,116.210938 582.592773,116.210938 C582.592773,116.210938 576.733398,103.027344 586.010742,96.1914062 C595.288086,89.3554688 606.518555,97.1679688 606.518555,97.1679688 C606.518555,97.1679688 605.541992,88.8671875 610.913086,86.9140625 C616.420898,84.9121094 621.655273,92.2851562 621.655273,92.2851562 C621.655273,92.2851562 618.374023,76.8505859 634.350586,73.2421875 C649.487305,69.8242187 652.905273,83.984375 652.905273,83.984375 C652.905273,83.984375 662.182617,69.3359375 677.319336,75.1953125 C696.533203,82.6318359 690.014648,102.050781 690.014648,102.050781 C690.014648,102.050781 696.850586,94.2382812 704.663086,99.609375 C710.698242,103.759766 710.03418,110.839844 710.03418,110.839844 C710.03418,110.839844 722.729492,97.1679688 737.37793,107.421875 C748.442383,115.170898 742.749023,129.394531 742.749023,129.394531 C742.749023,129.394531 748.608398,130.859375 748.608398,135.742188 C748.608398,142.578125 741.772461,144.042969 741.772461,144.042969 C741.772461,144.042969 749.248047,152.929688 744.213867,160.644531 C736.889648,171.875 723.217773,162.109375 723.217773,162.109375 C723.217773,162.109375 727.124023,168.457031 721.264648,171.386719 C715.405273,174.316406 711.010742,167.480469 711.010742,167.480469 C711.010742,167.480469 712.646484,177.675781 696.850586,183.105469 C681.225586,188.476563 674.87793,178.222656 674.87793,178.222656 C674.87793,178.222656 673.823242,188.183594 658.276367,186.035156 C644.116211,184.082031 643.62793,172.363281 643.62793,172.363281 C643.62793,172.363281 639.233398,182.495117 628.979492,181.152344 C617.749023,179.6875 617.260742,167.480469 617.260742,167.480469 C617.260742,167.480469 615.795898,176.391602 606.030273,175.78125 C598.217773,175.292969 596.75293,167.480469 596.75293,167.480469 C596.75293,167.480469 592.84668,173.339844 586.499023,170.898438 C581.943359,169.145508 583.081055,161.621094 583.081055,161.621094 C583.081055,161.621094 578.686523,167.96875 571.850586,165.039063 C566.015625,162.529297 567.944336,155.761719 567.944336,155.761719 Z" id="Path" fill="#EDF2F5"></path>
                    </g>
                    <g id="islands_and_sea" transform="translate(3.906250, 81.542969)">
                        <rect id="Rectangle" fill="#B0E1F9" x="0" y="73.2421875" width="876.953125" height="261.71875"></rect>
                        <path d="M100.585938,75.6835938 C100.585938,75.6835938 84.4726562,81.5429688 81.0546875,90.3320312 C77.6367188,99.1210938 73.7304688,126.464844 149.902344,134.277344 C226.074219,142.089844 256.347656,128.417969 257.324219,122.558594 C258.300781,116.699219 237.792969,101.5625 244.628906,97.65625 C251.464844,93.75 292.260742,95.1220703 292.96875,85.9375 C293.945312,73.2421875 281.098633,66.6064453 248.535156,63.9648438 C212.402344,61.0351562 129.882812,63.4765625 100.585938,75.6835938 Z" id="Path" fill="#FBEAAB"></path>
                        <g id="tree" transform="translate(268.554688, 40.527344)">
                            <path d="M2.5390625,28.6523438 C2.5390625,28.6523438 8.7890625,27.1875 12.3388672,22.4853516 C14.8339844,19.1845703 16.5087891,13.3398438 16.5087891,13.3398438 L19.4384766,13.1054688 C18.2883029,16.892972 16.5941918,20.4933692 14.4091797,23.7939453 C12.2705078,26.9482422 7.53417969,29.7265625 7.53417969,29.7265625 C7.53417969,29.7265625 6.63574219,30.7763672 4.65332031,30.4443359 C2.67089844,30.1123047 2.5390625,28.6523438 2.5390625,28.6523438 Z" id="Path" fill="#BA9582"></path>
                            <path d="M25.15625,11.1816406 L24.6923828,11.1816406 L22.8808594,9.44824219 L24.8339844,10.9130859 L24.1308594,8.57421875 L25.8056641,10.4150391 L25.8886719,8.65722656 L27.7490234,9.41894531 L26.8945312,8.60351563 L29.4042969,8.81835938 L28.2275391,7.94921875 L30.3759766,8.3203125 L29.0917969,6.77246094 L32.3193359,7.32910156 L30.7617188,6.16210938 L33.203125,6.13769531 L32.4169922,5.56152344 L33.7841797,5.3515625 L32.9980469,4.77050781 L35.625,3.671875 L31.953125,4.27734375 L33.2958984,2.70019531 L29.5605469,4.95605469 L30.8642578,2.89550781 L27.1240234,5.15136719 L28.4326172,3.0859375 L25.6640625,5.26367188 L25.546875,3.79882813 L23.7548828,5.90332031 L23.1152344,3.99414063 L21.8847656,7.03125 L20.7568359,5.16113281 L21.0302734,8.57910156 L20.0195312,7.92480469 L20.078125,7.84179688 L19.9609375,7.890625 L19.3701172,7.51464844 L20.2197266,6.30371094 L18.7548828,7.25097656 L19.9365234,4.5703125 L18.2568359,5.96679687 L19.1845703,2.64160156 L17.7539063,4.67773437 L17.1484375,1.2109375 L16.171875,3.44726563 L15.1367188,0.869140625 L14.7998047,2.85644531 L13.1542969,0.532226563 L12.5634766,1.87011719 L10.7421875,0 L11.4941406,1.92871094 L8.80859375,0.751953125 L10.2050781,2.43164062 L6.63085938,0.859375 L8.66699219,2.29003906 L4.69726563,1.61132813 L6.93359375,2.58789063 L3.66210938,2.74902344 L5.44921875,3.53515625 L3.71582031,3.83789063 L6.79199219,4.12597656 L5.75195313,5.26855469 L8.57910156,4.91210938 L7.5390625,6.0546875 L10.0732422,6.015625 L9.19433594,7.06542969 L11.6357422,6.875 L10.8642578,8.07617188 L13.1738281,7.72949219 L12.0703125,8.81347656 L14.2236328,8.62792969 L13.3300781,9.67773438 L15.3515625,10.4980469 L14.7167969,10.7666016 C14.1776718,10.3727129 13.5982529,10.0371737 12.9882812,9.765625 C9.04296875,7.87109375 0.151367187,11.71875 0.151367187,11.71875 L2.62695312,11.8212891 L2.2265625,12.5 L3.37402344,12.2705078 L2.97363281,12.9443359 L4.92675781,12.2607422 L4.12109375,13.6132812 L6.45507812,12.2558594 L6.02539062,13.828125 L7.578125,12.9248047 L6.97265625,13.9404297 L9.50683594,12.2460938 L8.50097656,13.9306641 L9.67773437,12.8027344 L10.4003906,14.1503906 L11.0302734,12.2363281 L11.3525391,14.2578125 L12.3583984,12.5683594 L12.8759766,14.2529297 L13.4814453,13.2373047 L13.4521484,14.1357422 L15.0048828,13.2324219 L14.5800781,14.8046875 L16.1230469,14.3603516 L15.3271484,15.2539062 L17.0068359,14.6582031 L18.1884766,15.6689453 L18.8427734,14.4921875 L20.1708984,16.0009766 L19.53125,14.0820312 L21.1474609,15.9130859 L21.4794922,13.9257813 L22.6074219,15.7958984 L23.0175781,14.7851563 L23.1298828,16.25 L24.4775391,14.6728516 L24.6679687,17.1142578 L25.9765625,15.0537109 L25.6835937,17.5244141 L27.0654297,16.4355469 L27.7050781,18.3447266 L27.5146484,15.9033203 L29.2431641,19.1943359 L29.1259766,17.7294922 L30.2539062,19.5996094 L30.5859375,17.6123047 L32.2802734,20.4150391 L32.1240234,18.4619141 L33.7402344,20.2929688 L33.6621094,19.3164063 L34.7119141,20.2148438 L34.6337891,19.2382813 L37.1875,20.5078125 C37.1875,20.5078125 30.0585937,11.2841797 25.15625,11.1816406 Z M19.1162109,7.86621094 L19.1943359,8.18359375 L18.7792969,8.34472656 L19.1162109,7.86621094 Z M18.7988281,9.65332031 L19.3603516,8.84765625 L19.6826172,10.1464844 L18.7988281,9.65332031 Z" id="Shape" fill="#9FC380"></path>
                        </g>
                        <path d="M95.9472656,90.0878906 C97.9003906,84.2285156 108.154297,50.5371094 113.525391,47.1191406 C118.896484,43.7011719 134.033203,16.3574219 140.380859,10.4980469 C146.728516,4.63867188 172.119141,-4.15039063 184.326172,2.68554688 C196.533203,9.52148438 198.486328,24.1699219 205.810547,33.4472656 C213.134766,42.7246094 246.826172,59.8144531 255.126953,59.3261719 C263.427734,58.8378906 278.564453,69.5410156 278.564453,75.4394531 C278.564453,89.1113281 217.041016,83.2519531 211.181641,93.0175781 C205.322266,102.783203 227.783203,100.830078 232.666016,109.619141 C237.548828,118.408203 235.595703,130.126953 164.794922,127.197266 C93.9941406,124.267578 92.5292969,100.341797 95.9472656,90.0878906 Z" id="Path" fill="#DDE792"></path>
                        <path d="M988.935547,140.771484 C988.935547,140.771484 1017.25586,151.079102 1023.29102,166.538086 C1029.32617,181.99707 1036.17188,230.097656 902.197266,243.842773 C768.222656,257.587891 714.956055,233.535156 713.232422,223.227539 C711.508789,212.919922 747.587891,186.293945 735.561523,179.423828 C723.535156,172.553711 651.772461,174.96582 650.532227,158.808594 C648.813477,136.479492 671.411133,139.404297 728.691406,134.760742 C792.246094,129.609375 937.397461,119.301758 988.935547,140.771484 Z" id="Path" fill="#FBEAAB"></path>
                        <path d="M997.094727,166.108398 C993.676758,155.805664 975.610352,96.5380859 966.171875,90.5273437 C956.733398,84.5166016 930.097656,36.4160156 918.945312,26.1083984 C907.792969,15.8007812 863.120117,0.341796875 841.645508,12.3681641 C820.170898,24.3945312 816.743164,50.1611328 803.852539,66.4794922 C790.961914,82.7978516 731.704102,112.866211 717.104492,112.001953 C702.504883,111.137695 675.878906,129.96582 675.878906,140.322266 C675.878906,164.375 784.101562,154.067383 794.404297,171.245117 C804.707031,188.422852 765.205078,184.985352 756.616211,200.449219 C748.027344,215.913086 751.464844,236.542969 875.976562,231.386719 C1000.48828,226.230469 1003.10547,184.145508 997.094727,166.108398 Z" id="Path" fill="#CCDB5D"></path>
                        <g id="tree_copy" transform="translate(218.261719, 96.191406)">
                            <path d="M2.5390625,28.6523438 C2.5390625,28.6523438 8.7890625,27.1875 12.3388672,22.4853516 C14.8339844,19.1845703 16.5087891,13.3398437 16.5087891,13.3398437 L19.4384766,13.1054687 C18.2883029,16.892972 16.5941918,20.4933692 14.4091797,23.7939453 C12.2705078,26.9482422 7.53417969,29.7265625 7.53417969,29.7265625 C7.53417969,29.7265625 6.63574219,30.7763672 4.65332031,30.4443359 C2.67089844,30.1123047 2.5390625,28.6523438 2.5390625,28.6523438 Z" id="Path" fill="#BA9582"></path>
                            <path d="M25.15625,11.1816406 L24.6923828,11.1816406 L22.8808594,9.44824219 L24.8339844,10.9130859 L24.1308594,8.57421875 L25.8056641,10.4150391 L25.8886719,8.65722656 L27.7490234,9.41894531 L26.8945313,8.60351562 L29.4042969,8.81835937 L28.2275391,7.94921875 L30.3759766,8.3203125 L29.0917969,6.77246094 L32.3193359,7.32910156 L30.7617188,6.16210938 L33.203125,6.13769531 L32.4169922,5.56152344 L33.7841797,5.3515625 L32.9980469,4.77050781 L35.625,3.671875 L31.953125,4.27734375 L33.2958984,2.70019531 L29.5605469,4.95605469 L30.8642578,2.89550781 L27.1240234,5.15136719 L28.4326172,3.0859375 L25.6640625,5.26367187 L25.546875,3.79882812 L23.7548828,5.90332031 L23.1152344,3.99414062 L21.8847656,7.03125 L20.7568359,5.16113281 L21.0302734,8.57910156 L20.0195313,7.92480469 L20.078125,7.84179688 L19.9609375,7.890625 L19.3701172,7.51464844 L20.2197266,6.30371094 L18.7548828,7.25097656 L19.9365234,4.5703125 L18.2568359,5.96679688 L19.1845703,2.64160156 L17.7539063,4.67773438 L17.1484375,1.2109375 L16.171875,3.44726563 L15.1367188,0.869140625 L14.7998047,2.85644531 L13.1542969,0.532226562 L12.5634766,1.87011719 L10.7421875,0 L11.4941406,1.92871094 L8.80859375,0.751953125 L10.2050781,2.43164062 L6.63085938,0.859375 L8.66699219,2.29003906 L4.69726563,1.61132812 L6.93359375,2.58789062 L3.66210938,2.74902344 L5.44921875,3.53515625 L3.71582031,3.83789062 L6.79199219,4.12597656 L5.75195313,5.26855469 L8.57910156,4.91210937 L7.5390625,6.0546875 L10.0732422,6.015625 L9.19433594,7.06542969 L11.6357422,6.875 L10.8642578,8.07617187 L13.1738281,7.72949219 L12.0703125,8.81347656 L14.2236328,8.62792969 L13.3300781,9.67773437 L15.3515625,10.4980469 L14.7167969,10.7666016 C14.1776718,10.3727129 13.5982529,10.0371737 12.9882813,9.765625 C9.04296875,7.87109375 0.151367188,11.71875 0.151367188,11.71875 L2.62695312,11.8212891 L2.2265625,12.5 L3.37402344,12.2705078 L2.97363281,12.9443359 L4.92675781,12.2607422 L4.12109375,13.6132812 L6.45507813,12.2558594 L6.02539063,13.828125 L7.578125,12.9248047 L6.97265625,13.9404297 L9.50683594,12.2460937 L8.50097656,13.9306641 L9.67773438,12.8027344 L10.4003906,14.1503906 L11.0302734,12.2363281 L11.3525391,14.2578125 L12.3583984,12.5683594 L12.8759766,14.2529297 L13.4814453,13.2373047 L13.4521484,14.1357422 L15.0048828,13.2324219 L14.5800781,14.8046875 L16.1230469,14.3603516 L15.3271484,15.2539062 L17.0068359,14.6582031 L18.1884766,15.6689453 L18.8427734,14.4921875 L20.1708984,16.0009766 L19.53125,14.0820312 L21.1474609,15.9130859 L21.4794922,13.9257812 L22.6074219,15.7958984 L23.0175781,14.7851562 L23.1298828,16.25 L24.4775391,14.6728516 L24.6679687,17.1142578 L25.9765625,15.0537109 L25.6835937,17.5244141 L27.0654297,16.4355469 L27.7050781,18.3447266 L27.5146484,15.9033203 L29.2431641,19.1943359 L29.1259766,17.7294922 L30.2539062,19.5996094 L30.5859375,17.6123047 L32.2802734,20.4150391 L32.1240234,18.4619141 L33.7402344,20.2929687 L33.6621094,19.3164062 L34.7119141,20.2148437 L34.6337891,19.2382812 L37.1875,20.5078125 C37.1875,20.5078125 30.0585938,11.2841797 25.15625,11.1816406 Z M19.1162109,7.86621094 L19.1943359,8.18359375 L18.7792969,8.34472656 L19.1162109,7.86621094 Z M18.7988281,9.65332031 L19.3603516,8.84765625 L19.6826172,10.1464844 L18.7988281,9.65332031 Z" id="Shape" fill="#9FC380"></path>
                        </g>
                        <g id="tree-2" transform="translate(237.792969, 56.640625)">
                            <path d="M2.99804687,29.1503906 C2.99804687,29.1503906 9.19921875,27.4755859 12.5927734,22.6757812 C14.9853516,19.296875 16.4746094,13.3984375 16.4746094,13.3984375 L19.4042969,13.0761719 C18.3706127,16.9021442 16.7849441,20.5570773 14.6972656,23.9257813 C12.65625,27.1484375 8.01269531,30.0732422 8.01269531,30.0732422 C8.01269531,30.0732422 7.1484375,31.1523438 5.15136719,30.8837891 C3.15429687,30.6152344 2.99804687,29.1503906 2.99804687,29.1503906 Z" id="Path" fill="#BA9582"></path>
                            <path d="M25.0488281,10.9765625 C24.8876953,10.9765625 24.7412109,10.9765625 24.5898438,11.0009766 L22.7246094,9.32128906 L24.7363281,10.703125 L23.9550781,8.38867188 L25.6933594,10.1757813 L25.7177734,8.41796875 L27.6025391,9.12109375 L26.71875,8.33496094 L29.2382813,8.46679688 L28.0322266,7.63671875 L30.1953125,7.93945313 L28.8623047,6.43066406 L32.1044922,6.88476563 L30.4980469,5.77636719 L32.9394531,5.67871094 L32.1386719,5.12695313 L33.4960937,4.87304688 L32.6904297,4.32128906 L35.2832031,3.13964844 L31.6308594,3.85742188 L32.9248047,2.24121094 L29.2578125,4.61425781 L30.4980469,2.50976563 L26.8261719,4.8828125 L28.0664063,2.77832031 L25.390625,5.04394531 L25.2294922,3.57910156 L23.5058594,5.73730469 L22.8027344,3.84765625 L21.6699219,6.92382813 L20.4833984,5.08789063 L20.8642578,8.50585938 L19.8242188,7.890625 L19.8779297,7.80761719 L19.7607422,7.85644531 L19.1601562,7.5 L19.9707031,6.26464844 L18.5058594,7.24121094 L19.5996094,4.52148438 L17.9638672,5.98632813 L18.7890625,2.63671875 L17.421875,4.71679688 L16.7089844,1.26953125 L15.7958984,3.53515625 L14.7070312,0.9765625 L14.4287109,2.97363281 L12.6953125,0.708007812 L12.1484375,2.06542969 L10.2539062,0.249023437 L11.0644531,2.15332031 L8.34472656,1.05957031 L9.80957031,2.6953125 L6.18652344,1.23046875 L8.26660156,2.59277344 L4.27734375,2.04101562 L6.54296875,2.95410156 L3.27636719,3.21777344 L5.08789062,3.9453125 L3.36425781,4.30664062 L6.45019531,4.4921875 L5.47363281,5.66894531 L8.28613281,5.22460937 L7.28515625,6.40136719 L9.81445312,6.27929687 L8.96484375,7.35839844 L11.3769531,7.08984375 L10.6445312,8.31542969 L12.9394531,7.89550781 L11.8701172,9.01855469 L14.0185547,8.75976562 L13.1591797,9.83886719 L15.2050781,10.5957031 L14.5800781,10.8837891 C14.045401,10.5005424 13.4727269,10.1733001 12.8710937,9.90722656 C8.86230469,8.13964844 0.09765625,12.2705078 0.09765625,12.2705078 L2.578125,12.2949219 L2.19726562,12.9833984 L3.33984375,12.7148437 L2.95898437,13.4033203 L4.86328125,12.6611328 L4.10644531,14.0380859 L6.39160156,12.6074219 L6.01074219,14.1943359 L7.53417969,13.2421875 L6.96289062,14.2724609 L9.43847656,12.5 L8.49121094,14.21875 L9.63378906,13.0566406 L10.3955078,14.375 L10.9667969,12.421875 L11.3476562,14.4287109 L12.2998047,12.7099609 L12.8759766,14.375 L13.4472656,13.3447266 L13.4472656,14.2431641 L14.9707031,13.2910156 L14.5898437,14.8779297 L16.1230469,14.3896484 L15.3564453,15.3027344 L17.0117187,14.6582031 L18.2275391,15.6347656 L18.8427734,14.4384766 L20.2197266,15.9033203 L19.5214844,14.0136719 L21.1914062,15.7958984 L21.4599609,13.7988281 L22.6464844,15.6347656 L23.0224609,14.609375 L23.1884766,16.0742188 L24.4824219,14.4580078 L24.7509766,16.8994141 L25.9912109,14.7949219 L25.7763672,17.2753906 L27.1240234,16.1425781 L27.8222656,18.0273438 L27.5537109,15.5859375 L29.3896484,18.8183594 L29.2236328,17.3535156 L30.4101562,19.1845703 L30.6835937,17.1923828 L32.4609375,19.9414063 L32.2460937,17.9882813 L33.9160156,19.7705078 L33.8085937,18.7939453 L34.8876953,19.6582031 L34.7802734,18.6816406 L37.3681641,19.8681641 C37.3681641,19.8681641 29.9560547,10.9228516 25.0488281,10.9765625 Z M18.90625,7.8515625 L18.9990234,8.1640625 L18.5888672,8.33984375 L18.90625,7.8515625 Z M18.6474609,9.6484375 L19.1845703,8.82324219 L19.5507813,10.1123047 L18.6474609,9.6484375 Z" id="Shape" fill="#9FC380"></path>
                        </g>
                        <g id="tree_copy_3" transform="translate(635.742188, 91.308594)">
                            <path d="M38.4765625,56.5478516 C38.4765625,56.5478516 41.8310547,46.7236328 38.4765625,37.8369141 C36.1035156,31.5771484 29.5410156,24.2626953 29.5410156,24.2626953 L31.7333984,20.0634766 C35.9225627,24.893655 39.3880872,30.3065839 42.0214844,36.1328125 C44.5019531,41.7724609 44.921875,53.2226562 44.921875,53.2226562 C44.921875,53.2226562 44.921875,54.6875 42.96875,56.1523437 C40.3662109,58.1054688 38.4765625,56.5478516 38.4765625,56.5478516 Z" id="Path" fill="#BA9582"></path>
                            <path d="M0.458984375,33.6621094 L4.58007813,31.6113281 L4.45800781,33.1884766 L6.15722656,31.7236328 L6.03027344,33.2958984 L8.64257813,30.3369141 L8.38867188,33.4863281 L11.1279297,28.9501953 L11.6650391,32.1582031 L13.4863281,29.1357422 L13.3007812,31.4990234 L16.0986328,26.1767578 L15.7861328,30.1123047 L16.8212891,27.0263672 L19.0429688,28.8085938 L18.5546875,24.8095703 L20.6640625,28.1445312 L20.9765625,24.2138672 L23.1494141,26.7578125 L23.3349609,24.3994141 L23.9990234,26.0351562 L25.8203125,23.0126953 L26.3574219,26.2207031 L28.9697266,23.2617187 L27.9345703,26.3476562 L30.0830078,23.90625 L31.1425781,25.8056641 L33.0517578,24.1748047 L35.7666016,25.1513672 L34.4775391,23.6865234 L36.9775391,24.4042969 L36.2841797,21.8603516 L38.7939453,23.3251953 L38.75,21.8603516 L39.7265625,23.5009766 L40.5712891,20.78125 L42.1972656,23.5107422 L42.7148438,20.2441406 L43.7304687,23.3349609 L44.8974609,21.1621094 L46.8066406,22.9833984 L45.1806641,20.2539063 L49.2724609,22.9931641 L48.2958984,21.3574219 L50.8105469,22.8222656 L50.1171875,20.2783203 L53.8818359,22.4707031 L52.5830078,20.2880859 L55.6982422,21.3916016 L55.0488281,20.2978516 L56.9091797,20.6689453 L56.2597656,19.5751953 L60.2636719,19.4140625 C60.2636719,19.4140625 45.8984375,13.1835938 39.5507812,16.2548828 C38.5947189,16.7114045 37.686855,17.262666 36.8408203,17.9003906 L35.8105469,17.4658203 L39.0869141,16.1376953 L37.6220703,14.4433594 L41.1083984,14.7460937 L39.3212891,12.9931641 L43.0566406,13.5546875 L41.8066406,11.6015625 L45.7128906,11.9140625 L44.2871094,10.2148437 L48.3789063,10.2783203 L46.7041016,8.43261719 L51.2695312,9.00878906 L49.5947266,7.15820312 L54.5654297,6.69433594 L51.7626953,6.20605469 L54.6484375,4.93164062 L49.3603516,4.67285156 L52.9736328,3.0859375 L46.5576172,4.18457031 L49.8535156,1.87011719 L44.0722656,4.4140625 L46.328125,1.69921875 L41.9921875,3.60351562 L43.2080078,0.483398437 L40.2294922,3.515625 L39.2529297,1.35253906 L36.5917969,5.10742187 L36.0449219,1.89941406 L34.4287109,6.05957031 L32.8369141,2.44628906 L31.8603516,8.05664062 L29.5458984,4.76074219 L31.0498047,10.1318359 L28.3349609,7.87597656 L30.2734375,12.2070312 L27.8759766,10.6738281 L29.2480469,12.6269531 L28.3007812,13.2275391 L28.1103516,13.1542969 L28.203125,13.2910156 L26.5527344,14.3359375 L26.9921875,8.828125 L25.1660156,11.8505859 L23.1835937,6.93847656 L22.1435547,10.0244141 L19.2480469,6.60644531 L19.0576172,8.96972656 L14.5898437,5.44433594 L16.6992187,8.77929687 L10.6542969,5.13183594 L12.7636719,8.46679687 L6.70410156,4.8828125 L8.87695313,7.43164063 L2.94921875,6.45507813 L7.19238281,8.23242188 L5.92285156,9.16503906 L8.12988281,9.50195313 L6.85546875,10.4394531 L10.8056641,10.4736328 L8.26171875,12.34375 L13.4765625,11.4453125 L11.4013672,13.9550781 L14.8828125,13.3544922 L12.9736328,14.7558594 L17.0361328,14.4091797 L15.6494141,15.7275391 L18.6572266,14.4921875 L18.7890625,17.3339844 L21.5039063,14.3603516 L20.3613281,18.1396484 L23.5400391,15.8007813 L20.6103516,18.6083984 C20.3662109,18.6083984 20.1220703,18.6083984 19.8681641,18.6083984 C11.9384766,18.7353516 0.458984375,33.6621094 0.458984375,33.6621094 Z M30.1757812,13.984375 L29.5019531,13.7207031 L29.6337891,13.2324219 L30.1757812,13.984375 Z M28.7109375,16.9140625 L29.2333984,14.8144531 L30.1464844,16.1132812 L28.7109375,16.9140625 Z" id="Shape" fill="#9FC380"></path>
                        </g>
                        <g id="tree_copy_4" transform="translate(747.070312, 117.675781)">
                            <path d="M38.4765625,56.5478516 C38.4765625,56.5478516 41.8310547,46.7236328 38.4765625,37.8369141 C36.1035156,31.5771484 29.5410156,24.2626953 29.5410156,24.2626953 L31.7333984,20.0634766 C35.9225627,24.893655 39.3880872,30.3065839 42.0214844,36.1328125 C44.5019531,41.7724609 44.921875,53.2226562 44.921875,53.2226562 C44.921875,53.2226562 44.921875,54.6875 42.96875,56.1523437 C40.3662109,58.1054688 38.4765625,56.5478516 38.4765625,56.5478516 Z" id="Path" fill="#BA9582"></path>
                            <path d="M0.458984375,33.6621094 L4.58007813,31.6113281 L4.45800781,33.1884766 L6.15722656,31.7236328 L6.03027344,33.2958984 L8.64257813,30.3369141 L8.38867188,33.4863281 L11.1279297,28.9501953 L11.6650391,32.1582031 L13.4863281,29.1357422 L13.3007812,31.4990234 L16.0986328,26.1767578 L15.7861328,30.1123047 L16.8212891,27.0263672 L19.0429688,28.8085937 L18.5546875,24.8095703 L20.6640625,28.1445312 L20.9765625,24.2138672 L23.1494141,26.7578125 L23.3349609,24.3994141 L23.9990234,26.0351562 L25.8203125,23.0126953 L26.3574219,26.2207031 L28.9697266,23.2617187 L27.9345703,26.3476562 L30.0830078,23.90625 L31.1425781,25.8056641 L33.0517578,24.1748047 L35.7666016,25.1513672 L34.4775391,23.6865234 L36.9775391,24.4042969 L36.2841797,21.8603516 L38.7939453,23.3251953 L38.75,21.8603516 L39.7265625,23.5009766 L40.5712891,20.78125 L42.1972656,23.5107422 L42.7148438,20.2441406 L43.7304687,23.3349609 L44.8974609,21.1621094 L46.8066406,22.9833984 L45.1806641,20.2539063 L49.2724609,22.9931641 L48.2958984,21.3574219 L50.8105469,22.8222656 L50.1171875,20.2783203 L53.8818359,22.4707031 L52.5830078,20.2880859 L55.6982422,21.3916016 L55.0488281,20.2978516 L56.9091797,20.6689453 L56.2597656,19.5751953 L60.2636719,19.4140625 C60.2636719,19.4140625 45.8984375,13.1835937 39.5507812,16.2548828 C38.5947189,16.7114045 37.686855,17.262666 36.8408203,17.9003906 L35.8105469,17.4658203 L39.0869141,16.1376953 L37.6220703,14.4433594 L41.1083984,14.7460938 L39.3212891,12.9931641 L43.0566406,13.5546875 L41.8066406,11.6015625 L45.7128906,11.9140625 L44.2871094,10.2148438 L48.3789063,10.2783203 L46.7041016,8.43261719 L51.2695313,9.00878906 L49.5947266,7.15820313 L54.5654297,6.69433594 L51.7626953,6.20605469 L54.6484375,4.93164063 L49.3603516,4.67285156 L52.9736328,3.0859375 L46.5576172,4.18457031 L49.8535156,1.87011719 L44.0722656,4.4140625 L46.328125,1.69921875 L41.9921875,3.60351563 L43.2080078,0.483398438 L40.2294922,3.515625 L39.2529297,1.35253906 L36.5917969,5.10742188 L36.0449219,1.89941406 L34.4287109,6.05957031 L32.8369141,2.44628906 L31.8603516,8.05664063 L29.5458984,4.76074219 L31.0498047,10.1318359 L28.3349609,7.87597656 L30.2734375,12.2070312 L27.8759766,10.6738281 L29.2480469,12.6269531 L28.3007812,13.2275391 L28.1103516,13.1542969 L28.203125,13.2910156 L26.5527344,14.3359375 L26.9921875,8.828125 L25.1660156,11.8505859 L23.1835937,6.93847656 L22.1435547,10.0244141 L19.2480469,6.60644531 L19.0576172,8.96972656 L14.5898437,5.44433594 L16.6992187,8.77929687 L10.6542969,5.13183594 L12.7636719,8.46679687 L6.70410156,4.8828125 L8.87695313,7.43164063 L2.94921875,6.45507813 L7.19238281,8.23242188 L5.92285156,9.16503906 L8.12988281,9.50195313 L6.85546875,10.4394531 L10.8056641,10.4736328 L8.26171875,12.34375 L13.4765625,11.4453125 L11.4013672,13.9550781 L14.8828125,13.3544922 L12.9736328,14.7558594 L17.0361328,14.4091797 L15.6494141,15.7275391 L18.6572266,14.4921875 L18.7890625,17.3339844 L21.5039063,14.3603516 L20.3613281,18.1396484 L23.5400391,15.8007813 L20.6103516,18.6083984 C20.3662109,18.6083984 20.1220703,18.6083984 19.8681641,18.6083984 C11.9384766,18.7353516 0.458984375,33.6621094 0.458984375,33.6621094 Z M30.1757812,13.984375 L29.5019531,13.7207031 L29.6337891,13.2324219 L30.1757812,13.984375 Z M28.7109375,16.9140625 L29.2333984,14.8144531 L30.1464844,16.1132812 L28.7109375,16.9140625 Z" id="Shape" fill="#9FC380"></path>
                        </g>
                        <path d="M516.723633,76.8359375 C516.875,77.1923828 519.106445,77.4462891 520.683594,77.3242188 C522.260742,77.2021484 523.979492,76.8652344 524.179688,76.4111328 C524.379883,75.9570312 522.607422,70.8300781 522.255859,69.4580078 C521.904297,68.0859375 520.683594,64.4873047 521.342773,63.1103516 C522.001953,61.7333984 525.957031,59.1015625 527.69043,57.4267578 C529.423828,55.7519531 531.108398,54.4970703 531.245117,52.4023438 C531.381836,50.3076172 530.429687,48.9550781 530.175781,48.984375 C529.921875,49.0136719 529.6875,50.8642578 527.03125,51.3671875 C524.375,51.8701172 522.973633,52.1289062 521.552734,52.7880859 C520.131836,53.4472656 518.764648,55.3759766 518.764648,55.3759766 C518.764648,55.3759766 517.138672,53.4472656 515.463867,53.3496094 C513.789062,53.2519531 511.40625,54.0576172 509.682617,53.5498047 C507.958984,53.0419922 506.992187,51.4208984 506.586914,51.5722656 C506.181641,51.7236328 506.586914,54.8193359 508.461914,56.796875 C510.336914,58.7744141 512.368164,60.5078125 514.80957,61.5673828 C518.413086,63.1396484 517.705078,66.0302734 517.705078,67.1972656 C517.705078,68.3642578 516.572266,76.4794922 516.723633,76.8359375 Z" id="Path" fill="#D8D6D1"></path>
                    </g>
                    <g id="seagulls" transform="translate(124.511719, 50.781250)">
                        <g id="gull" transform="translate(294.921875, 0.000000)">
                            <path d="M53.7890625,44.8486328 C52.2705078,43.3300781 49.2333984,39.5361328 45.4394531,37.2607422 C43.9257812,36.3525391 40.5908203,35.3564453 38.4033203,34.7607422 C38.9611541,34.5645884 39.3463494,34.0522787 39.3798828,33.4619141 C39.4100712,31.8660034 38.5265806,30.3928871 37.1044922,29.6679687 C35.6396484,28.9355469 32.7490234,29.609375 31.1914063,28.9648437 C30.8676724,28.7136913 30.5610057,28.4412799 30.2734375,28.1494141 C28.7548828,26.6308594 27.2363281,19.0429687 24.1992187,16.0058594 C21.1621094,12.96875 13.5742187,9.93164062 10.5273437,7.65625 C7.48046875,5.38085937 1.41601562,-0.693359375 0.659179687,0.0634765625 C-1.61621094,2.34375 5.21484375,6.89941406 5.21484375,6.89941406 C5.00738417,7.09750094 4.8900134,7.37185018 4.8900134,7.65869141 C4.8900134,7.94553263 5.00738417,8.21988188 5.21484375,8.41796875 C5.97167969,9.1796875 10.5273437,12.2167969 10.5273437,12.2167969 C10.5273437,12.2167969 9.00878906,12.9736328 9.765625,13.7353516 C10.5224609,14.4970703 14.3212891,16.0107422 14.3212891,16.0107422 C14.3212891,16.0107422 12.8027344,16.7675781 13.5644531,17.5292969 C14.3261719,18.2910156 17.3535156,19.0429688 17.3535156,19.0429688 C17.3535156,19.0429688 15.3564453,19.5996094 15.8349609,20.5615234 C16.5966797,22.0800781 19.6289062,22.0800781 19.6289062,22.0800781 C19.6289062,22.0800781 19.0917969,23.8183594 19.6289062,24.3554687 C20.390625,25.1123047 22.6660156,25.1123047 22.6660156,25.1123047 C22.4598312,25.3110892 22.3433552,25.5851779 22.3433552,25.871582 C22.3433552,26.1579861 22.4598312,26.4320749 22.6660156,26.6308594 C23.1055942,27.0001373 23.6257371,27.261045 24.1845703,27.3925781 C24.1845703,27.3925781 22.6660156,28.1494141 23.4277344,28.9111328 C24.090482,29.4858391 24.8915332,29.8779503 25.7519531,30.0488281 L24.1845703,30.4296875 C22.3065471,30.9130564 20.5145472,31.6838799 18.8720703,32.7148438 L12.7978516,31.1962891 C12.7978516,31.1962891 12.7978516,34.9902344 13.5595703,37.2705078 C14.3212891,39.5507813 17.3535156,40.3027344 17.3535156,40.3027344 L19.6289062,36.5087891 C19.6289062,36.5087891 20.4101562,36.7431641 21.5820312,37.0605469 C21.1572266,38.0371094 18.8818359,41.0644531 18.8818359,41.0644531 L15.0878906,41.8212891 L16.9726562,42.9541016 L18.8818359,44.1015625 L19.6386719,41.8212891 C20.3485666,40.0976369 21.4883374,38.5846667 22.9492187,37.4267578 L23.9257812,37.6757812 C23.4375,39.5458984 21.1669922,41.8212891 21.1669922,41.8212891 L19.6484375,44.1015625 L20.7226562,44.8193359 L21.9287109,45.6201172 L21.9287109,42.5830078 C23.1076148,40.9329822 24.5092651,39.4541015 26.09375,38.1884766 C27.466522,38.5219717 28.8674825,38.7263125 30.2783203,38.7988281 C31.2105151,38.7899572 32.1304479,38.5853428 32.9785156,38.1982422 C33.3544922,38.4179687 33.7353516,38.6279297 34.0722656,38.7988281 C35.5908203,39.5556641 35.5908203,38.0371094 35.5908203,38.0371094 C35.5908203,38.0371094 35.5908203,39.5556641 36.3476562,39.5556641 C36.5504261,39.5610429 36.7465621,39.4831965 36.8904529,39.3402281 C37.0343437,39.1972597 37.1134498,39.0016283 37.109375,38.7988281 C37.1643304,39.3800356 37.4342182,39.9198112 37.8662109,40.3125 C38.6279297,41.0742188 38.6279297,39.5556641 38.6279297,39.5556641 C38.6279297,39.5556641 39.3847656,41.0742188 40.1464844,41.0742188 C40.3492846,41.0782935 40.544916,40.9991874 40.6878844,40.8552967 C40.8308528,40.7114059 40.9086992,40.5152698 40.9033203,40.3125 C41.3438533,41.1143227 41.8518739,41.8771704 42.421875,42.5927734 C43.1787109,43.3496094 43.9404297,41.8310547 43.9404297,41.8310547 C43.9404297,41.8310547 44.1601562,44.3310547 44.6972656,44.8681641 C45.4589844,45.6298828 46.2158203,44.1113281 46.2158203,44.1113281 C46.2158203,44.1113281 46.4404297,45.8496094 46.9775391,46.3867187 C47.734375,47.1484375 49.2529297,46.3867187 49.2529297,46.3867187 C49.2529297,46.3867187 48.9404297,48.6621094 50.0146484,48.6621094 C50.7714844,48.6621094 50.7714844,47.1484375 50.7714844,47.1484375 C50.7714844,47.1484375 52.2900391,49.4238281 53.046875,49.4238281 C53.8037109,49.4238281 53.046875,47.9052734 53.046875,47.9052734 C53.046875,47.9052734 61.3964844,53.9794922 62.1582031,53.2177734 C62.9199219,52.4560547 55.3076172,46.3867188 53.7890625,44.8486328 Z" id="Path" fill="#EDF2F5"></path>
                            <path d="M22.2705078,40.5273438 C21.9193746,40.9720564 21.5444797,41.3974807 21.1474609,41.8017578 L19.6289063,44.0820312 L20.703125,44.7998047 L21.9091797,45.6005859 L21.9091797,42.5634766 C22.2707644,42.0430526 22.660335,41.5426418 23.0761719,41.0644531 L22.2705078,40.5273438 Z" id="Path" fill="#F7D591"></path>
                            <path d="M20.8740234,39.6044922 L20.2294922,39.1748047 C19.5458984,40.1513672 18.8720703,41.0546875 18.8720703,41.0546875 L15.078125,41.8115234 L16.9628906,42.9443359 L18.8720703,44.0917969 L19.6289062,41.8115234 C19.9377106,41.0207728 20.3569092,40.2777228 20.8740234,39.6044922 L20.8740234,39.6044922 Z" id="Path" fill="#F7D591"></path>
                            <circle id="Oval" fill="#A48483" cx="34.8095703" cy="31.9433594" r="1"></circle>
                            <path d="M39.3652344,33.4619141 L41.6455078,36.4990234 L37.109375,34.9804688 C37.16453,34.397921 37.4342804,33.8566798 37.8662109,33.4619141 C38.3837891,32.9248047 39.3652344,33.4619141 39.3652344,33.4619141 Z" id="Path" fill="#F7D591"></path>
                        </g>
                        <g id="gull-2" transform="translate(0.000000, 140.136719)">
                            <path d="M85.1123047,71.1621094 C82.7050781,68.7548828 77.8857422,62.7294922 71.8652344,59.1162109 C69.4677734,57.6806641 64.1748047,56.0986328 60.703125,55.15625 C61.5576172,54.7216797 62.2314453,54.1308594 62.2314453,53.0957031 C62.2767468,50.5632021 60.8743168,48.2264505 58.6181641,47.0751953 C56.2841797,45.9082031 51.7089844,46.9824219 49.2333984,45.9570312 C48.7186484,45.5583901 48.2294068,45.1278575 47.7685547,44.6679688 C45.3564453,42.2558594 42.9492188,30.2148437 38.1298828,25.3955078 C33.3105469,20.5761719 21.2695313,15.7617187 16.4501953,12.1484375 C11.6308594,8.53515625 2.00195313,-1.09863281 0.795898438,0.102539062 C-2.81738281,3.71582031 8.02246094,10.9423828 8.02246094,10.9423828 C8.02246094,10.9423828 6.81640625,12.1484375 8.02246094,13.3496094 C9.22851563,14.5507812 16.4501953,19.375 16.4501953,19.375 C16.4501953,19.375 14.0429688,20.5761719 15.2490234,21.7822266 C16.4550781,22.9882812 22.4755859,25.3955078 22.4755859,25.3955078 C22.4755859,25.3955078 20.0634766,26.6015625 21.2695313,27.8027344 C22.4755859,29.0039062 27.2900391,30.2148437 27.2900391,30.2148437 C27.2900391,30.2148437 24.1210938,31.0986328 24.8828125,32.6220703 C26.0888672,35.0292969 30.9033203,35.0292969 30.9033203,35.0292969 C30.9033203,35.0292969 30.0537109,37.7929687 30.9033203,38.6425781 C32.109375,39.8486328 35.7226563,39.8486328 35.7226563,39.8486328 C35.7226563,39.8486328 34.5166016,41.0546875 35.7226563,42.2558594 C36.4183486,42.8426621 37.243358,43.2560035 38.1298828,43.4619141 C38.1298828,43.4619141 35.7226563,44.6679687 36.9287109,45.8691406 C37.8222656,46.7675781 39.21875,47.3339844 40.6152344,47.6806641 C39.7753906,47.8759766 38.9355469,48.0761719 38.1298828,48.28125 C35.1514254,49.0447759 32.308699,50.2635578 29.7021484,51.8945312 L20.0634766,49.4824219 C20.0634766,49.4824219 20.0634766,55.5029297 21.2695313,59.1162109 C22.4755859,62.7294922 27.2900391,63.9355469 27.2900391,63.9355469 L30.9033203,57.9150391 C30.9033203,57.9150391 32.1435547,58.2861328 33.984375,58.7890625 C33.3154297,60.3222656 29.7021484,65.1367188 29.7021484,65.1367188 L23.6767578,66.3378906 L26.6699219,68.1347656 L29.7021484,69.9511719 L30.9033203,66.3378906 C30.9033203,66.3378906 32.109375,62.7246094 36.1523438,59.3652344 L37.6904297,59.7558594 C36.9287109,62.7246094 33.2958984,66.3378906 33.2958984,66.3378906 L30.8837891,69.9511719 L32.5927734,71.0888672 L34.4970703,72.3632813 L34.4970703,67.5439453 C36.3777194,64.9168205 38.6123985,62.5621917 41.1376953,60.546875 C43.315776,61.0796081 45.5390837,61.4065651 47.7783203,61.5234375 C49.2559103,61.5075002 50.7140956,61.184937 52.0605469,60.5761719 C52.6611328,60.9228516 53.2617187,61.2548828 53.7988281,61.5234375 C56.2060547,62.7246094 56.2060547,60.3173828 56.2060547,60.3173828 C56.2060547,60.3173828 56.2060547,62.7246094 57.4121094,62.7246094 C57.7335309,62.7326854 58.0442595,62.6088918 58.2720712,62.3820024 C58.4998829,62.1551129 58.6249361,61.8448891 58.6181641,61.5234375 C58.7056731,62.4471843 59.1338582,63.3052952 59.8193359,63.9306641 C61.0253906,65.1367188 61.0253906,62.7246094 61.0253906,62.7246094 C61.0253906,62.7246094 62.2314453,65.1367188 63.4326172,65.1367188 C63.7544964,65.1434408 64.0651823,65.0185344 64.2928349,64.7908818 C64.5204876,64.5632292 64.6453939,64.2525433 64.6386719,63.9306641 C64.6386719,63.9306641 66.1962891,66.6943359 67.0458984,67.5439453 C68.2519531,68.75 69.453125,66.3378906 69.453125,66.3378906 C69.453125,66.3378906 69.8095703,70.3076172 70.6591797,71.1572266 C71.8652344,72.3632812 73.0664063,69.9511719 73.0664063,69.9511719 C73.0664063,69.9511719 73.4228516,72.7148437 74.2724609,73.5644531 C75.4785156,74.7705078 77.8857422,73.5644531 77.8857422,73.5644531 C77.8857422,73.5644531 77.3974609,77.1777344 79.0917969,77.1777344 C80.2929688,77.1777344 80.2929688,74.7705078 80.2929688,74.7705078 C80.2929688,74.7705078 82.7050781,78.3837891 83.90625,78.3837891 C85.1074219,78.3837891 83.90625,75.9765625 83.90625,75.9765625 C83.90625,75.9765625 97.1582031,85.6103516 98.359375,84.4042969 C99.5605469,83.1982422 87.5195313,73.5693359 85.1123047,71.1621094 Z" id="Path" fill="#EDF2F5"></path>
                            <path d="M35.1025391,64.3212891 C34.5448942,65.0249377 33.9516735,65.6996448 33.3251953,66.3427734 L30.9130859,69.9560547 L32.6220703,71.09375 L34.5263672,72.3681641 L34.5263672,67.5488281 C35.1039038,66.7253376 35.7249009,65.9331995 36.3867188,65.1757812 L35.1025391,64.3212891 Z" id="Path" fill="#F7D591"></path>
                            <path d="M32.8857422,62.8417969 L31.8652344,62.1630859 C30.78125,63.7109375 29.7119141,65.1416016 29.7119141,65.1416016 L23.6865234,66.3427734 L26.6796875,68.1396484 L29.7119141,69.9560547 L30.9130859,66.3427734 C31.4032416,65.0890647 32.0672982,63.9105286 32.8857422,62.8417969 L32.8857422,62.8417969 Z" id="Path" fill="#F7D591"></path>
                            <circle id="Oval" fill="#A48483" cx="55.0048828" cy="50.6884766" r="1.20605469"></circle>
                            <path d="M62.2314453,53.0957031 L65.8398437,57.9150391 L58.6181641,55.5029297 C58.7056731,54.5791829 59.1338582,53.721072 59.8193359,53.0957031 C60.6738281,52.2460938 62.2314453,53.0957031 62.2314453,53.0957031 Z" id="Path" fill="#F7D591"></path>
                        </g>
                        <g id="gull-3" transform="translate(368.652344, 142.578125)">
                            <path d="M15.9423828,84.7216797 C18.8085937,81.8505859 24.5458984,74.6826172 31.7138672,70.3808594 C34.5703125,68.6669922 40.8691406,66.7871094 45.0048828,65.6640625 C43.9794922,65.1464844 43.1835937,64.4482422 43.1835937,63.2226563 C43.1288803,60.2073234 44.7987417,57.4248528 47.4853516,56.0546875 C50.2636719,54.6630859 55.7080078,55.9423828 58.6572266,54.7216797 C59.2669898,54.2461795 59.8459534,53.7324512 60.390625,53.1835938 C63.2568359,50.3173828 66.1230469,35.9765625 71.8603516,30.234375 C77.5976562,24.4921875 91.9335937,18.7646484 97.6708984,14.4628906 C103.408203,10.1611328 114.87793,-1.30859375 116.308594,0.122070313 C120.610352,4.42382813 107.705078,13.0273438 107.705078,13.0273438 C107.705078,13.0273438 109.140625,14.4628906 107.705078,15.8935547 C106.269531,17.3242188 97.65625,23.0664063 97.65625,23.0664063 C97.65625,23.0664063 100.522461,24.4970703 99.0869141,25.9326172 C97.6513672,27.3681641 90.4833984,30.234375 90.4833984,30.234375 C90.4833984,30.234375 93.3544922,31.6699219 91.9189453,33.1005859 C90.4833984,34.53125 84.7509766,35.9667969 84.7509766,35.9667969 C84.7509766,35.9667969 88.5253906,37.0214844 87.6171875,38.8378906 C86.1865234,41.7041016 80.4492187,41.7041016 80.4492187,41.7041016 C80.4492187,41.7041016 81.4648437,44.9902344 80.4492187,46.0058594 C79.0136719,47.4414063 74.7119141,47.4414063 74.7119141,47.4414063 C74.7119141,47.4414063 76.1474609,48.8720703 74.7119141,50.3076172 C73.7011719,51.3232422 71.8457031,51.7431641 71.8457031,51.7431641 C71.8457031,51.7431641 74.7119141,53.1738281 73.28125,54.609375 C72.2119141,55.6738281 70.5517578,56.3427734 68.8867188,56.7626953 C69.8876953,56.9970703 70.8886719,57.2509766 71.8457031,57.4755859 C75.3927,58.3866649 78.7785863,59.8375238 81.8847656,61.7773438 L93.3544922,58.9111328 C93.3544922,58.9111328 93.3544922,66.0791016 91.9189453,70.3808594 C90.4833984,74.6826172 84.7509766,76.1181641 84.7509766,76.1181641 L80.4492187,68.9453125 C80.4492187,68.9453125 78.984375,69.3896484 76.7822266,69.9902344 C77.5830078,71.8164063 81.8847656,77.5488281 81.8847656,77.5488281 L89.0527344,78.984375 L85.4931641,81.1181641 L81.8847656,83.2861328 L80.4492187,78.984375 C80.4492187,78.984375 79.0136719,74.6826172 74.1992188,70.6835938 C73.6067708,70.8398438 72.9964193,71.0026042 72.3681641,71.171875 C73.28125,74.7070313 77.5830078,79.0087891 77.5830078,79.0087891 L80.4492187,83.3105469 L78.4179687,84.6630859 L76.1474609,86.1767578 L76.1474609,80.4199219 C73.9187024,77.3035928 71.2699464,74.5102397 68.2763672,72.1191406 C65.2490234,72.7734375 62.3193359,73.2666016 60.3759766,73.2666016 C58.6156626,73.2500725 56.8780245,72.8676258 55.2734375,72.1435547 C54.5556641,72.5585937 53.8476562,72.9492187 53.2080078,73.2666016 C50.3369141,74.7021484 50.3369141,71.8359375 50.3369141,71.8359375 C50.3369141,71.8359375 50.3369141,74.7021484 48.90625,74.7021484 C48.5231026,74.7102174 48.1532587,74.5615653 47.8822725,74.2905791 C47.6112863,74.0195929 47.4626342,73.6497489 47.4707031,73.2666016 C47.3662128,74.3689486 46.8543397,75.3926948 46.0351562,76.1376953 C44.6044922,77.5683594 44.6044922,74.7021484 44.6044922,74.7021484 C44.6044922,74.7021484 43.1689453,77.5683594 41.7333984,77.5683594 C41.3515459,77.5764294 40.9829433,77.4282921 40.7128725,77.1582213 C40.4428017,76.8881505 40.2946643,76.5195478 40.3027344,76.1376953 C40.3027344,76.1376953 38.4472656,79.4238281 37.4316406,80.4394531 C36.0009766,81.8701172 34.5654297,79.0039062 34.5654297,79.0039062 C34.5654297,79.0039062 34.1455078,83.7255859 33.1298828,84.7412109 C31.6992187,86.171875 30.2636719,83.3056641 30.2636719,83.3056641 C30.2636719,83.3056641 29.84375,86.5917969 28.8330078,87.6074219 C27.3974609,89.0429687 24.53125,87.6074219 24.53125,87.6074219 C24.53125,87.6074219 25.1220703,91.9091797 23.0957031,91.9091797 C21.6601562,91.9091797 21.6601562,89.0429687 21.6601562,89.0429687 C21.6601562,89.0429687 18.7939453,93.3447266 17.3583984,93.3447266 C15.9228516,93.3447266 17.3583984,90.4736328 17.3583984,90.4736328 C17.3583984,90.4736328 1.58691406,101.943359 0.151367187,100.512695 C-1.28417969,99.0820312 13.0712891,87.5878906 15.9423828,84.7216797 Z" id="Path" fill="#EDF2F5"></path>
                            <path d="M75.4785156,76.5722656 C76.1430437,77.4121274 76.8503596,78.2172289 77.5976563,78.984375 L80.4638672,83.2861328 L78.4326172,84.6386719 L76.1621094,86.1523437 L76.1621094,80.4199219 C75.4760704,79.4385303 74.7376974,78.494782 73.9501953,77.5927734 L75.4785156,76.5722656 Z" id="Path" fill="#F7D591"></path>
                            <path d="M78.125,74.8144531 L79.3359375,74.0039062 C80.625,75.8496094 81.9042969,77.5488281 81.9042969,77.5488281 L89.0722656,78.984375 L85.5126953,81.1181641 L81.9042969,83.2861328 L80.46875,78.984375 C79.8868523,77.4913978 79.0978757,76.0876769 78.125,74.8144531 L78.125,74.8144531 Z" id="Path" fill="#F7D591"></path>
                            <circle id="Oval" fill="#A48483" cx="51.7871094" cy="60.3466797" r="1.43554688"></circle>
                            <path d="M43.1835938,63.2128906 L38.8818359,68.9453125 L47.4853516,66.0791016 C47.3806036,64.9782248 46.8686706,63.9561001 46.0498047,63.2128906 C45.0390625,62.1972656 43.1835938,63.2128906 43.1835938,63.2128906 Z" id="Path" fill="#F7D591"></path>
                        </g>
                    </g>
                    <g id="boat" transform="translate(318.847656, 297.851562)">
                        <path d="M100.585938,0 C100.585938,0 68.359375,26.3671875 47.8515625,59.5703125 C27.34375,92.7734375 0,188.964844 0,188.964844 L202.636719,188.964844 C202.636719,188.964844 168.608398,80.4150391 157.714844,62.5 C135.742188,26.3671875 100.585938,0 100.585938,0 Z" id="Path" fill="#EDF2F5"></path>
                        <path d="M100.664062,10.2539062 C100.664062,10.2539062 71.9384766,33.7597656 53.6523438,63.359375 C35.3662109,92.9589844 10.9960937,178.710938 10.9960937,178.710938 L191.660156,178.710938 C191.660156,178.710938 161.328125,81.9433594 151.621094,65.9716797 C132.006836,33.7597656 100.664062,10.2539062 100.664062,10.2539062 Z" id="Path" fill="#D8D6D1" opacity="0.45"></path>
                    </g>
                    <g id="yacht" transform="translate(346.679688, 126.953125)">
                        <path d="M58.9990234,2.64160156 L101.254883,123.583984 C101.254883,123.583984 87.890625,117.324219 81.2060547,116.411133 C74.5214844,115.498047 58.9990234,114.458008 58.9990234,114.458008 L58.9990234,2.64160156 Z" id="Path" fill="#EDF2F5"></path>
                        <path d="M34.5751953,115.629883 L58.9892578,115.629883 L58.9892578,2.64160156 C58.9892578,2.64160156 49.3164062,61.3964844 46.5917969,73.6767578 C43.8671875,85.9570312 34.5751953,115.629883 34.5751953,115.629883 Z" id="Path" fill="#EDF2F5"></path>
                        <path d="M14.5898438,114.975586 L27.2851562,114.975586 L27.2851562,45.0927734 C27.2851562,45.0927734 21.2109375,87.2851562 19.9609375,93.0322266 C18.7109375,98.7792969 14.5898438,114.975586 14.5898438,114.975586 Z" id="Path" fill="#EDF2F5"></path>
                        <path d="M69.8242188,125 L67.3828125,123.046875 L59.9072266,123.046875 L59.9072266,1.19628906 C59.9072266,0.79178363 59.5793101,0.463867187 59.1748047,0.463867187 C58.7702993,0.463867187 58.4423828,0.79178363 58.4423828,1.19628906 L58.4423828,115.058594 L33.984375,115.058594 C33.5798696,115.058594 33.2519531,115.38651 33.2519531,115.791016 C33.2519531,116.195521 33.5798696,116.523437 33.984375,116.523437 L58.4472656,116.523437 L58.4472656,123.046875 L49.8046875,123.046875 L41.015625,118.164062 L28.0371094,118.496094 L28.0371094,43.9453125 C28.0371094,43.5084466 27.6829596,43.1542969 27.2460937,43.1542969 C26.8092279,43.1542969 26.4550781,43.5084466 26.4550781,43.9453125 L26.4550781,114.331055 L14.1601563,114.331055 C13.7556508,114.331055 13.4277344,114.658971 13.4277344,115.063477 C13.4277344,115.467982 13.7556508,115.795898 14.1601563,115.795898 L26.4501953,115.795898 L26.4501953,118.540039 L21.9726563,118.652344 L17.578125,124.023437 L10.2539063,124.023437 L0.48828125,125.488281 C0.00425208788,128.286949 1.13734903,131.119692 3.41796875,132.8125 C5.672466,134.544934 8.39274019,135.565037 11.2304688,135.742187 C11.2304688,135.742187 31.7382812,137.207031 49.3164063,137.207031 L91.796875,137.207031 L103.515625,124.023438 L69.8242188,125 Z" id="Path" fill="#D8D6D1"></path>
                        <polygon id="Path" fill="#EDF2F5" points="20.5078125 125 41.015625 125 33.6914062 120.117188 24.4140625 120.117188"></polygon>
                        <polygon id="Path" fill="#EDF2F5" points="42.4804688 124.511719 36.1328125 120.117188 40.0390625 119.628906 47.3632812 123.535156"></polygon>
                        <path d="M40.5273438,126.665039 C16.2939453,126.665039 0.537109375,126.176758 0.380859375,126.176758 L0.4296875,125.688477 C0.5859375,125.688477 16.3037109,126.176758 40.5273438,126.176758 C64.7509766,126.176758 103.457031,123.608398 103.842773,123.583984 L103.530273,124.072266 C103.164062,124.09668 64.7851562,126.665039 40.5273438,126.665039 Z" id="Path" fill="#EDF2F5"></path>
                        <path d="M40.6005859,130.473633 C19.1650391,130.473633 4.36035156,130.102539 1.11816406,130.014648 C0.975715013,129.807426 0.860819272,129.582559 0.776367187,129.345703 C0.667201041,129.09175 0.602775165,128.820831 0.5859375,128.544922 C3.41796875,128.623047 18.3496094,129.008789 40.2001953,129.008789 C61.0400391,129.008789 92.6025391,127.114258 101.235352,126.567383 L99.8535156,128.125 C89.6044922,128.764648 60.3857422,130.473633 40.6005859,130.473633 Z" id="Path" fill="#F69173"></path>
                    </g>
                </g>
            </g>
        </g>
    </g>
</svg>