<!-- Generated by IcoMoon.io -->
<svg version="1.1" xmlns="http://www.w3.org/2000/svg" width="1358" height="1024" viewBox="0 0 1358 1024">
<title></title>
<g id="icomoon-ignore">
</g>
<path d="M1284.696 506.368q0 59.392-18.944 104.96t-53.76 76.8-83.968 47.616-110.592 16.384q-123.904 0-194.56-60.928t-70.656-176.64q0-104.448 60.416-162.816-32.768 2.048-69.632 4.096t-59.392 2.048q-27.648 0-65.536-2.048t-70.656-6.144q27.648 26.624 43.008 66.048t15.36 90.624q0 59.392-18.944 104.96t-53.76 76.8-83.968 47.616-110.592 16.384q-123.904 0-194.56-60.928t-70.656-176.64q0-116.736 71.68-179.712t196.608-62.976q32.768 0 61.44 4.096t53.248 12.288q58.368 8.192 112.128 12.288t108.032 4.096q58.368 0 113.152-2.56t98.816-6.656q58.368-23.552 132.096-23.552 61.44 0 110.080 15.36t82.944 45.056 52.736 73.728 18.432 100.352zM1209.944 504.32q0-39.936-13.824-71.68t-39.424-53.248-60.416-32.768-75.776-11.264q-86.016 0-138.24 48.128t-52.224 135.168q0 81.92 51.2 125.952t135.168 44.032q43.008 0 78.336-12.8t60.928-36.352 39.936-57.856 14.336-77.312zM531.032 504.32q0-40.96-14.336-72.192t-39.424-52.736-59.904-32.768-75.776-11.264q-86.016 0-138.24 48.128t-52.224 135.168q0 81.92 51.2 125.952t135.168 44.032q41.984 0 77.824-12.8t61.44-36.864 39.936-58.368 14.336-76.288z"></path>
</svg>
