<!-- Generated by IcoMoon.io -->
<svg version="1.1" xmlns="http://www.w3.org/2000/svg" width="1052" height="1024" viewBox="0 0 1052 1024">
<title></title>
<g id="icomoon-ignore">
</g>
<path d="M921.264 736.768v-83.968q-7.168 17.408-20.48 34.816t-31.232 30.72-40.448 21.504-49.152 8.192q-69.632 0-111.616-39.936t-40.96-135.168q0-33.792 0.512-62.976t0.512-56.32-0.512-53.76-2.56-56.32q-20.48 6.144-47.616 10.24t-46.592 4.096q-20.48 0-41.984-1.536t-45.056-5.632q46.080 55.296 46.080 155.648 0 118.784-57.856 182.272t-156.16 63.488q-99.328 0-155.648-60.928t-56.32-176.64q0-116.736 57.344-179.712t156.672-62.976q28.672 0 52.224 5.12t49.152 10.752 54.784 10.752 69.12 5.12q7.168 0 27.136-2.048t40.448-4.608 36.352-5.632 15.872-5.12h66.56q4.096 40.96 5.632 74.24t1.536 64-1.024 60.928-1.024 65.024q0 64.512 23.040 99.84t75.264 35.328q54.272 0 89.6-41.472t35.328-116.224v-241.664h69.632v450.56h-66.56zM415.408 504.32q0-77.824-34.816-124.416t-102.4-46.592q-68.608 0-102.912 50.688t-34.304 134.656q0 78.848 33.792 124.928t101.376 46.080q33.792 0 59.904-13.312t43.52-37.888 26.624-58.88 9.216-75.264z"></path>
</svg>
