<!-- Generated by IcoMoon.io -->
<svg version="1.1" xmlns="http://www.w3.org/2000/svg" width="511" height="1024" viewBox="0 0 511 1024">
<title></title>
<g id="icomoon-ignore">
</g>
<path d="M445.452 634.88q0 119.808-52.224 189.952t-152.576 70.144q-41.984 0-75.776-11.776t-72.704-40.448l16.384-57.344q34.816 24.576 64.512 35.84t61.44 11.264q37.888 0 64-15.872t43.008-43.52 24.576-64.512 7.68-77.824v-102.4q-23.552 34.816-59.392 53.248t-78.848 18.432q-38.912 0-70.144-14.336t-53.248-41.472-34.304-65.024-12.288-84.992q0-129.024 66.56-197.12t190.464-68.096q19.456 0 34.304 0.512t28.16 2.56 27.648 5.632 32.768 9.728v487.424zM373.772 200.704q-19.456-4.096-29.696-5.12t-27.648-1.024q-82.944 0-129.024 51.712t-46.080 146.944q0 66.56 26.112 101.888t75.264 35.328q62.464 0 96.768-53.76t34.304-163.328v-112.64z"></path>
</svg>
