<!-- Generated by IcoMoon.io -->
<svg version="1.1" xmlns="http://www.w3.org/2000/svg" width="512" height="1024" viewBox="0 0 512 1024">
<title></title>
<g id="icomoon-ignore">
</g>
<path d="M454.144 346.112q0 119.808-52.224 187.904t-143.36 68.096q-32.768 0-59.904-7.68t-47.616-28.16v326.656h-74.752v-623.616q0-11.264-1.536-26.624t-3.584-32.256-5.632-33.792-7.68-31.232h72.704q2.048 7.168 3.584 12.8t3.072 12.288 2.56 15.36 3.072 22.016q58.368-76.8 142.336-76.8 77.824 0 123.392 57.856t45.568 157.184zM380.416 352.256q0-72.704-26.624-111.616t-75.776-38.912q-60.416 0-94.72 50.688t-34.304 140.8v103.424q17.408 21.504 44.032 33.792t50.176 12.288q28.672 0 53.76-14.848t43.52-40.448 29.184-60.416 10.752-74.752z"></path>
</svg>
