<!-- Generated by IcoMoon.io -->
<svg version="1.1" xmlns="http://www.w3.org/2000/svg" width="512" height="1024" viewBox="0 0 512 1024">
<title></title>
<g id="icomoon-ignore">
</g>
<path d="M477.184 717.312q-19.456 13.312-35.328 18.432t-34.304 5.12q-70.656 0-83.968-75.776-52.224 77.824-135.168 77.824-69.632 0-106.496-43.52t-36.864-143.872q0-40.96 0.512-73.728t0-64-2.56-64-8.192-72.704h73.728q4.096 38.912 5.632 71.168t2.048 62.464 0 62.464-0.512 71.168q0 68.608 15.872 100.864t61.952 32.256q25.6 0 48.64-11.776t39.936-33.28 26.624-51.2 9.728-66.56v-237.568h70.656v331.776q0 68.608 41.984 68.608 9.216 0 17.92-3.584t28.16-14.848v54.272z"></path>
</svg>
