<!-- Generated by IcoMoon.io -->
<svg version="1.1" xmlns="http://www.w3.org/2000/svg" width="528" height="1024" viewBox="0 0 528 1024">
<title></title>
<g id="icomoon-ignore">
</g>
<path d="M492.352 851.456q-15.36 11.264-29.696 16.384t-31.744 5.12q-31.744 0-55.296-16.384t-29.696-61.44q-21.504 38.912-56.832 59.904t-80.384 20.992q-38.912 0-71.168-15.36t-54.784-44.032-34.816-68.096-12.288-88.576q0-56.32 15.36-103.936t43.52-81.92 67.072-53.248 86.016-18.944q13.312 0 24.064 0.512t20.992 2.56 21.504 5.12 26.624 8.192v-270.336h72.704v561.152q0 32.768 1.024 52.224t4.608 30.72 11.264 14.848 22.016 3.584q9.216 0 17.92-3.072t22.016-11.264v55.296zM341.824 483.84q-22.528-10.24-38.912-14.848t-39.936-4.608q-33.792 0-61.44 14.848t-47.104 41.472-30.208 63.488-10.752 81.92q0 64.512 26.112 102.4t71.168 37.888q30.72 0 54.784-11.264t40.96-37.376 26.112-69.12 9.216-105.472v-99.328z"></path>
</svg>
