<!-- Generated by IcoMoon.io -->
<svg version="1.1" xmlns="http://www.w3.org/2000/svg" width="1051" height="1024" viewBox="0 0 1051 1024">
<title></title>
<g id="icomoon-ignore">
</g>
<path d="M1029.308 849.92q-26.624 13.312-46.592 18.432t-43.52 5.12q-55.296 0-76.8-32.256t-21.504-94.72v-168.96q0-49.152-25.6-77.312t-80.896-28.16q-40.96 0-73.216 15.872t-54.272 41.472-33.28 56.832-11.264 61.952v216.064h-74.752v-187.392q-18.432 39.936-43.008 75.776t-55.296 62.976-66.048 43.52-75.264 16.384q-75.776 0-114.688-36.352t-38.912-110.080v-256h-72.704v-59.392h72.704v-97.28h70.656v97.28h178.176v58.368h-177.152v258.048q0 41.984 24.064 64.512t61.952 22.528 74.24-28.672 67.584-69.12 55.808-85.504 37.888-78.848v-406.528h70.656v359.424q9.216-16.384 25.6-34.816t38.912-34.304 51.2-26.112 63.488-10.24q35.84 0 68.608 7.68t57.856 28.16 39.936 55.808 14.848 90.624v160.768q0 67.584 50.176 67.584 13.312 0 25.088-4.608t32.256-15.872z"></path>
</svg>
