<!-- Generated by IcoMoon.io -->
<svg version="1.1" xmlns="http://www.w3.org/2000/svg" width="514" height="1024" viewBox="0 0 514 1024">
<title></title>
<g id="icomoon-ignore">
</g>
<path d="M480.232 725.504q-9.216 8.192-25.088 15.36t-36.352 7.168q-35.84 0-57.856-21.504t-27.136-61.44q-53.248 83.968-136.192 83.968-35.84 0-65.536-13.824t-51.712-41.472-34.304-68.608-12.288-94.208q0-58.368 17.92-105.472t47.616-80.384 69.632-51.712 84.992-18.432q35.84 0 63.488 7.68t46.080 15.872q21.504 11.264 37.888 23.552v305.152q0 29.696 13.312 44.032t29.696 14.336q10.24 0 17.408-3.584t18.432-11.776v55.296zM328.68 364.032q-7.168-9.216-26.624-15.872t-38.912-6.656q-73.728 0-113.664 53.248t-39.936 148.48q0 65.536 24.576 99.84t71.68 34.304q58.368 0 90.624-51.2t32.256-140.288v-121.856z"></path>
</svg>
