<!-- Generated by IcoMoon.io -->
<svg version="1.1" xmlns="http://www.w3.org/2000/svg" width="493" height="1024" viewBox="0 0 493 1024">
<title></title>
<g id="icomoon-ignore">
</g>
<path d="M424.164 629.76q0 119.808-52.224 189.952t-152.576 70.144q-41.984 0-75.776-11.776t-72.704-40.448l16.384-57.344q34.816 24.576 64.512 35.84t61.44 11.264q37.888 0 64-15.872t43.008-43.52 24.576-64.512 7.68-77.824v-100.352q-51.2 70.656-130.048 70.656-69.632 0-106.496-43.52t-36.864-143.872q0-40.96 0.512-73.728t0-64-2.56-64-8.192-72.704h73.728q4.096 38.912 5.632 71.168t2.048 62.464 0 62.464-0.512 71.168q0 68.608 15.872 100.864t61.952 32.256q25.6 0 48.64-11.776t39.936-33.28 26.624-51.2 9.728-66.56v-237.568h70.656v128.512t0.512 121.856 0.512 120.32v124.928z"></path>
</svg>
