<!-- Generated by IcoMoon.io -->
<svg version="1.1" xmlns="http://www.w3.org/2000/svg" width="1044" height="1024" viewBox="0 0 1044 1024">
<title></title>
<g id="icomoon-ignore">
</g>
<path d="M983.824 635.392q0 119.808-52.224 189.952t-152.576 70.144q-41.984 0-75.776-11.776t-72.704-40.448l16.384-57.344q34.816 24.576 64.512 35.84t61.44 11.264q37.888 0 64-15.872t43.008-43.52 24.576-64.512 7.68-77.824v-102.4q-23.552 34.816-59.392 53.248t-78.848 18.432q-32.768 0-59.904-11.776t-48.64-31.232-35.84-45.056-21.504-54.272q-9.216 23.552-24.064 48.64t-34.816 45.568-46.080 33.792-56.832 13.312q-41.984 0-68.096-31.744t-26.112-86.016v-179.2q0-51.2-17.408-77.824t-49.152-26.624q-29.696 0-53.76 14.336t-41.984 40.448-27.648 62.464-9.728 81.408v193.536h-71.68v-306.176q0-36.864-6.144-78.336t-14.336-66.048h69.632q3.072 9.216 5.632 15.36t4.096 13.824 3.072 18.432 3.584 27.136q33.792-47.104 66.048-66.56t76.288-19.456q65.536 0 101.888 45.056t36.352 126.976v174.080q0 29.696 11.264 46.592t30.72 16.896q22.528 0 44.544-25.088t41.472-58.88 33.792-69.12 20.48-55.808q16.384-97.28 80.384-148.48t171.52-51.2q19.456 0 34.304 0.512t28.16 2.56 27.648 5.632 32.768 9.728v487.424zM912.144 201.216q-19.456-4.096-29.696-5.12t-27.648-1.024q-82.944 0-129.024 51.712t-46.080 146.944q0 66.56 26.112 101.888t75.264 35.328q62.464 0 96.768-53.76t34.304-163.328v-112.64z"></path>
</svg>
