<!-- Generated by IcoMoon.io -->
<svg version="1.1" xmlns="http://www.w3.org/2000/svg" width="699" height="1024" viewBox="0 0 699 1024">
<title></title>
<g id="icomoon-ignore">
</g>
<path d="M143.714 236.032q0 18.432-13.312 31.232t-30.72 12.8q-19.456 0-33.792-12.288t-14.336-30.72q-1.024-20.48 11.776-34.816t31.232-14.336q20.48 0 34.816 13.824t14.336 34.304zM647.522 491.008q0 71.68-59.392 111.616t-167.936 39.936h-23.040t-27.136-2.048q6.144 61.44 37.888 95.744t83.968 34.304q59.392 0 122.88-44.032v70.656q-32.768 20.48-62.976 29.696t-66.048 9.216q-70.656 0-117.76-38.912t-63.488-108.544q-11.264 23.552-25.088 49.152t-32.256 46.592-43.52 34.304-57.856 13.312q-46.080 0-67.072-32.256t-20.992-102.912v-324.608h71.68v322.56q0 39.936 9.216 57.856t30.72 17.92q20.48 0 40.448-21.504t37.376-51.712 30.72-61.44 19.456-49.664q2.048-45.056 17.92-86.016t42.496-71.68 63.488-49.152 79.872-18.432q68.608 0 107.52 34.304t38.912 95.744zM573.794 488.96q0-26.624-19.968-46.080t-49.664-19.456q-24.576 0-47.104 12.8t-40.96 34.304-30.208 49.152-14.848 57.344q17.408 2.048 27.136 3.072t23.040 1.024q69.632 0 111.104-25.088t41.472-67.072z"></path>
</svg>
