<!-- Generated by IcoMoon.io -->
<svg version="1.1" xmlns="http://www.w3.org/2000/svg" width="462" height="1024" viewBox="0 0 462 1024">
<title></title>
<g id="icomoon-ignore">
</g>
<path d="M415.32 848.896q-30.72 23.552-67.584 23.552-28.672 0-53.76-17.92t-56.832-60.928l-120.832-161.792v235.52h-69.632v-715.776h67.584v330.752q36.864-81.92 114.688-81.92 24.576 0 46.080 8.192t37.376 22.528 25.088 34.304 9.216 42.496q0 48.128-36.352 80.896t-103.936 47.104l96.256 128q29.696 40.96 64.512 40.96 12.288 0 22.528-3.584t24.576-14.848zM272.984 515.072q0-22.528-13.824-36.352t-35.328-13.824q-34.816 0-64 38.4t-40.448 99.84q30.72-1.024 58.88-8.704t49.152-19.456 33.28-27.136 12.288-32.768z"></path>
</svg>
