<!-- Generated by IcoMoon.io -->
<svg version="1.1" xmlns="http://www.w3.org/2000/svg" width="380" height="1024" viewBox="0 0 380 1024">
<title></title>
<g id="icomoon-ignore">
</g>
<path d="M337.968 629.248q0 56.32-39.424 89.088t-108.032 32.768q-81.92 0-148.48-44.032l15.36-62.464q30.72 21.504 62.976 33.792t61.952 12.288q36.864 0 59.392-17.408t22.528-44.032q0-21.504-15.872-39.936t-51.712-41.984q-36.864-24.576-62.464-44.032t-41.472-37.888-23.040-36.864-7.168-40.96q0-53.248 37.888-83.968t103.424-30.72q63.488 0 131.072 35.84l-10.24 64.512q-35.84-18.432-66.048-28.16t-56.832-9.728q-29.696 0-47.104 14.336t-17.408 37.888q0 12.288 4.608 22.016t15.36 19.968 27.136 22.016 40.96 27.136q27.648 18.432 48.64 34.816t35.328 33.792 21.504 37.376 7.168 44.544z"></path>
</svg>
