<!-- Generated by IcoMoon.io -->
<svg version="1.1" xmlns="http://www.w3.org/2000/svg" width="744" height="1024" viewBox="0 0 744 1024">
<title></title>
<g id="icomoon-ignore">
</g>
<path d="M641.312 236.544q0 18.432-13.312 31.232t-30.72 12.8q-19.456 0-33.792-12.288t-14.336-30.72q-1.024-20.48 11.776-34.816t31.232-14.336q20.48 0 34.816 13.824t14.336 34.304zM715.040 808.96q-20.48 13.312-36.352 18.432t-35.328 5.12q-43.008 0-64-27.648t-24.064-88.064q-10.24 20.48-23.552 40.96t-30.208 37.888-38.4 28.16-49.152 10.752q-35.84 0-57.856-21.504t-27.136-61.44q-53.248 83.968-136.192 83.968-35.84 0-65.536-13.824t-51.712-41.472-34.304-68.608-12.288-94.208q0-58.368 16.896-105.472t48.128-80.384 75.776-51.2 98.816-17.92q19.456 0 34.304 1.024t29.184 3.584 29.184 6.656 35.328 11.264v328.704q0 29.696 11.264 43.52t31.744 13.824q22.528 0 41.472-22.528t33.792-52.736 25.088-60.928 15.36-47.104v-215.040h71.68v322.56q0 39.936 9.216 57.856t30.72 17.92q9.216 0 18.944-3.584t29.184-13.824v55.296zM325.92 441.344q-21.504-7.168-33.792-9.216t-31.744-2.048q-73.728 0-114.688 52.224t-40.96 147.456q0 65.536 24.576 99.84t71.68 34.304q58.368 0 91.648-51.2t33.28-140.288v-131.072z"></path>
</svg>
