<!-- Generated by IcoMoon.io -->
<svg version="1.1" xmlns="http://www.w3.org/2000/svg" width="742" height="1024" viewBox="0 0 742 1024">
<title></title>
<g id="icomoon-ignore">
</g>
<path d="M639.288 235.52q0 18.432-12.288 31.232t-29.696 12.8q-19.456 0-34.816-12.288t-15.36-30.72q-1.024-20.48 12.8-34.816t32.256-14.336q20.48 0 33.792 13.824t13.312 34.304zM713.016 807.936q-20.48 13.312-36.352 18.432t-35.328 5.12q-46.080 0-67.072-32.256t-20.992-102.912v-264.192q-20.48 4.096-46.592 7.168t-46.592 3.072q-23.552 0-38.912-1.024t-29.696-3.072q38.912 59.392 38.912 151.552 0 114.688-53.76 180.736t-147.968 66.048-146.944-61.952-52.736-172.544q0-113.664 53.76-178.688t148.992-65.024q25.6 0 48.128 5.12t47.616 11.776 54.272 11.776 69.12 5.12q5.12 0 19.456-1.536t31.232-4.608 32.768-6.656 24.064-7.68h66.56v322.56q0 39.936 9.216 57.856t30.72 17.92q9.216 0 18.944-3.584t29.184-13.824v55.296zM357.688 587.776q0-79.872-32.768-122.88t-93.184-43.008q-61.44 0-94.72 47.616t-33.28 137.728q0 79.872 31.744 122.368t92.16 42.496 95.232-49.152 34.816-135.168z"></path>
</svg>
