<!-- Generated by IcoMoon.io -->
<svg version="1.1" xmlns="http://www.w3.org/2000/svg" width="512" height="1024" viewBox="0 0 512 1024">
<title></title>
<g id="icomoon-ignore">
</g>
<path d="M376.32 731.648l-4.096-22.528q-2.048-10.24-3.072-21.504t-1.024-22.528q-26.624 38.912-61.952 58.368t-78.336 19.456q-69.632 0-109.056-43.52t-39.424-143.872q0-40.96 0.512-73.728t0-64-2.56-64-8.192-72.704h73.728q4.096 38.912 5.632 71.168t2.048 62.464 0 62.464-0.512 71.168q0 68.608 18.432 100.864t64.512 32.256q25.6 0 49.152-11.776t41.472-33.28 28.672-51.2 10.752-66.56v-237.568h70.656v331.776q0 24.576 1.024 46.080t3.072 37.888q2.048 18.432 5.12 34.816h-66.56z"></path>
</svg>
