<!-- Generated by IcoMoon.io -->
<svg version="1.1" xmlns="http://www.w3.org/2000/svg" width="413" height="1024" viewBox="0 0 413 1024">
<title></title>
<g id="icomoon-ignore">
</g>
<path d="M368.292 713.728q-64.512 35.84-124.928 35.84-94.208 0-146.432-58.368t-52.224-163.84q0-117.76 57.344-185.344t156.672-67.584q16.384 0 29.184 1.024t24.576 3.584 24.576 7.168 30.208 11.776l-12.288 67.584q-15.36-7.168-26.112-11.264t-20.48-6.656-19.968-3.584-22.528-1.024q-65.536 0-104.96 49.152t-39.424 134.144q0 70.656 32.768 114.176t88.064 43.52q29.696 0 57.344-9.216t63.488-29.696z"></path>
</svg>
