<!-- Generated by IcoMoon.io -->
<svg version="1.1" xmlns="http://www.w3.org/2000/svg" width="512" height="1024" viewBox="0 0 512 1024">
<title></title>
<g id="icomoon-ignore">
</g>
<path d="M447.488 613.376q0 60.416-14.848 108.544t-42.496 82.432-66.56 52.736-87.040 18.432q-41.984 0-88.576-11.264t-83.456-31.744v-684.032h65.536v328.704q27.648-38.912 64.512-57.344t82.944-18.432q80.896 0 125.44 55.808t44.544 156.16zM371.712 616.448q0-71.68-28.672-110.592t-72.704-38.912q-27.648 0-52.224 12.288t-43.008 40.448-29.696 73.728-11.264 112.128v84.992q23.552 15.36 41.984 19.968t45.056 4.608q71.68 0 111.104-51.712t39.424-146.944z"></path>
</svg>
