<!-- Generated by IcoMoon.io -->
<svg version="1.1" xmlns="http://www.w3.org/2000/svg" width="709" height="1024" viewBox="0 0 709 1024">
<title></title>
<g id="icomoon-ignore">
</g>
<path d="M551.108 698.368q-8.192 26.624-20.48 35.328t-31.744 8.704q-41.984 0-55.296-44.032l-65.536-221.184q-5.12-16.384-9.216-32.256t-7.168-30.208q-4.096-15.36-7.168-30.72-3.072 16.384-7.168 33.792-3.072 14.336-7.168 30.72t-8.192 30.72l-55.296 214.016q-8.192 29.696-24.064 39.424t-39.424 9.728q-17.408 0-31.744-8.704t-21.504-32.256l-130.048-419.84h73.728l74.752 262.144 36.864 135.168 34.816-136.192 70.656-261.12h66.56l77.824 270.336 31.744 126.976 29.696-123.904 74.752-273.408h77.824z"></path>
</svg>
