<!-- Generated by IcoMoon.io -->
<svg version="1.1" xmlns="http://www.w3.org/2000/svg" width="905" height="1024" viewBox="0 0 905 1024">
<title></title>
<g id="icomoon-ignore">
</g>
<path d="M866.196 349.696q-6.144-2.048-23.552-6.656t-34.816-4.608q-36.864 0-61.44 21.504t-38.912 54.784-20.48 74.24-6.144 79.872v168.96h-68.608v-307.2q0-26.624-1.024-48.64t-3.072-40.448q-3.072 1.024-12.8 3.584t-22.016 5.632-27.136 5.12-28.16 2.048q-20.48 0-47.616-1.536t-51.712-5.632q22.528 27.648 34.304 66.048t11.776 89.6q0 118.784-57.856 182.272t-156.16 63.488q-99.328 0-155.648-60.928t-56.32-176.64q0-116.736 57.344-179.712t156.672-62.976q28.672 0 52.736 5.12t49.664 10.752 56.32 10.752 72.704 5.12q45.056 0 78.848-6.656t41.984-10.752h58.368q4.096 16.384 6.144 28.672t3.072 24.064 1.024 23.552v27.136q20.48-55.296 53.248-84.48t84.992-29.184q6.144 0 14.336 1.536t16.384 4.096 14.848 4.608 8.704 3.072v60.416zM390.036 504.32q0-77.824-34.816-124.416t-102.4-46.592q-68.608 0-102.912 50.688t-34.304 134.656q0 78.848 33.792 124.928t101.376 46.080q33.792 0 59.904-13.312t43.52-37.888 26.624-58.88 9.216-75.264z"></path>
</svg>
