<!-- Generated by IcoMoon.io -->
<svg version="1.1" xmlns="http://www.w3.org/2000/svg" width="947" height="1024" viewBox="0 0 947 1024">
<title></title>
<g id="icomoon-ignore">
</g>
<path d="M894.876 399.872q0 31.744-15.36 58.88t-44.544 47.104-73.216 31.744-100.352 11.776q-15.36 0-30.208-1.536t-31.232-2.56q1.024 29.696 9.216 57.344t24.064 48.128 40.96 32.768 59.904 12.288q30.72 0 61.44-10.752t63.488-28.16v58.368q-32.768 19.456-64 27.648t-69.12 8.192q-74.752 0-124.928-39.424t-66.56-111.104q-28.672 31.744-60.416 59.392t-66.56 47.616-73.728 31.744-81.92 11.776q-92.16 0-145.92-58.368t-53.76-161.792q0-58.368 16.896-105.984t46.080-81.408 69.632-52.224 86.528-18.432q70.656 0 110.080 35.84t39.424 91.136q0 31.744-15.36 58.88t-44.544 47.104-73.216 31.744-100.352 11.776q-14.336 0-29.184-1.536t-32.256-2.56q1.024 29.696 9.216 57.344t24.576 48.128 41.472 32.768 59.904 12.288q40.96 0 79.36-14.336t72.192-37.888 63.488-53.248 54.272-61.44v-15.872t1.024-15.872q4.096-51.2 22.528-92.672t46.592-70.656 65.536-45.056 79.36-15.872q70.656 0 110.080 35.84t39.424 91.136zM821.148 401.92q0-30.72-23.040-52.224t-56.832-21.504q-31.744 0-56.32 15.872t-42.496 40.448-27.648 53.76-10.752 55.808q16.384 2.048 30.72 3.584t29.696 1.536q32.768 0 61.44-6.144t49.664-18.432 33.28-30.208 12.288-42.496zM347.036 401.92q0-30.72-22.528-52.224t-56.32-21.504q-31.744 0-56.832 15.872t-43.008 40.448-27.648 53.76-10.752 55.808q16.384 2.048 30.72 3.584t30.72 1.536q32.768 0 61.44-6.144t49.664-18.432 32.768-30.208 11.776-42.496z"></path>
</svg>
