<!-- Generated by IcoMoon.io -->
<svg version="1.1" xmlns="http://www.w3.org/2000/svg" width="845" height="1024" viewBox="0 0 845 1024">
<title></title>
<g id="icomoon-ignore">
</g>
<path d="M803.428 348.672q-5.12-1.024-14.848-2.56t-20.48-3.072-19.456-2.56-12.8-1.024q-36.864 0-61.44 19.968t-38.912 52.224-20.48 72.192-6.144 79.872v175.104h-68.608v-192.512q-19.456 39.936-51.2 77.312t-71.168 65.536-84.992 45.056-91.648 16.896q-92.16 0-145.92-58.368t-53.76-161.792q0-58.368 16.896-105.984t46.080-81.408 69.632-52.224 86.528-18.432q70.656 0 110.080 35.84t39.424 91.136q0 31.744-15.36 58.88t-44.544 47.104-73.216 31.744-100.352 11.776q-15.36 0-30.208-1.536t-31.232-2.56q1.024 29.696 9.216 57.344t24.064 48.128 40.96 32.768 59.904 12.288q50.176 0 95.744-23.040t83.456-58.368 66.56-77.824 45.056-82.432q0-1.024-0.512-8.704t-0.512-16.896v-23.552q0-36.864-2.56-61.952t-10.752-55.808h65.536q4.096 16.384 6.144 28.672t3.072 24.064 1.024 23.552v27.136q21.504-55.296 53.76-84.48t84.48-29.184q3.072 0 11.776 1.536t18.944 3.072 19.456 4.096 13.312 3.584v59.392zM336.484 401.92q0-30.72-23.040-52.224t-55.808-21.504q-31.744 0-56.832 15.872t-43.008 40.448-27.648 53.76-10.752 55.808q16.384 2.048 30.72 3.584t29.696 1.536q33.792 0 62.464-6.144t49.664-18.432 32.768-30.208 11.776-42.496z"></path>
</svg>
