<?xml version="1.0" encoding="UTF-8"?>
<svg width="667px" height="375px" viewBox="0 0 667 375" version="1.1" xmlns="http://www.w3.org/2000/svg" xmlns:xlink="http://www.w3.org/1999/xlink">
    <!-- Generator: Sketch 64 (93537) - https://sketch.com -->
    <title>Beach</title>
    <desc>Created with Sketch.</desc>
    <g id="iPhone-8" stroke="none" stroke-width="1" fill="none" fill-rule="evenodd">
        <g id="Activity-starts---scene-01" fill-rule="nonzero">
            <g id="Bg" transform="translate(-73.000000, 0.000000)">
                <g id="Beach" transform="translate(-90.332031, -61.035156)">
                    <g id="sky">
                        <rect id="Rectangle" fill="#CDEBFB" x="0" y="15.625" width="931.640625" height="167.480469"></rect>
                        <path d="M287.109375,169.433594 C287.109375,169.433594 269.53125,160.15625 273.925781,142.089844 C278.320312,124.023437 301.757812,129.882812 301.757812,129.882812 C301.757812,129.882812 295.898438,116.699219 305.175781,109.863281 C314.453125,103.027344 325.683594,110.839844 325.683594,110.839844 C325.683594,110.839844 324.707031,102.539062 330.078125,100.585937 C335.585938,98.5839844 340.820312,105.957031 340.820312,105.957031 C340.820312,105.957031 337.539062,90.5224609 353.515625,86.9140625 C368.652344,83.4960938 372.070312,97.65625 372.070312,97.65625 C372.070312,97.65625 381.347656,83.0078125 396.484375,88.8671875 C415.698242,96.3037109 409.179688,115.722656 409.179688,115.722656 C409.179688,115.722656 416.015625,107.910156 423.828125,113.28125 C429.863281,117.431641 429.199219,124.511719 429.199219,124.511719 C429.199219,124.511719 441.894531,110.839844 456.542969,121.09375 C467.607422,128.837891 461.914062,143.066406 461.914062,143.066406 C461.914062,143.066406 467.773438,144.506836 467.773438,149.414062 C467.773438,156.25 460.9375,157.714844 460.9375,157.714844 C460.9375,157.714844 468.413086,166.601562 463.378906,174.316406 C456.054688,185.546875 442.382812,175.78125 442.382812,175.78125 C442.382812,175.78125 446.289062,182.128906 440.429688,185.058594 C434.570312,187.988281 430.175781,181.152344 430.175781,181.152344 C430.175781,181.152344 431.811523,191.347656 416.015625,196.777344 C400.390625,202.148437 394.042969,191.894531 394.042969,191.894531 C394.042969,191.894531 392.988281,201.850586 377.441406,199.707031 C363.28125,197.753906 362.792969,186.035156 362.792969,186.035156 C362.792969,186.035156 358.398438,196.162109 348.144531,194.824219 C336.914062,193.359375 336.425781,181.152344 336.425781,181.152344 C336.425781,181.152344 334.960938,190.063477 325.195312,189.453125 C317.382812,188.964844 315.917969,181.152344 315.917969,181.152344 C315.917969,181.152344 312.011719,187.011719 305.664062,184.570312 C301.108398,182.817383 302.246094,175.292969 302.246094,175.292969 C302.246094,175.292969 297.851562,181.640625 291.015625,178.710938 C285.180664,176.210938 287.109375,169.433594 287.109375,169.433594 Z" id="Path" fill="#EDF2F5"></path>
                        <path d="M554.6875,83.4960938 C554.6875,83.4960938 537.109375,74.21875 541.503906,56.1523437 C545.898438,38.0859375 569.335938,43.9453125 569.335938,43.9453125 C569.335938,43.9453125 563.476563,30.7617187 572.753906,23.9257812 C582.03125,17.0898437 593.261719,24.9023437 593.261719,24.9023437 C593.261719,24.9023437 592.285156,16.6015625 597.65625,14.6484375 C603.164062,12.6464844 608.398438,20.0195312 608.398438,20.0195312 C608.398438,20.0195312 605.117188,4.58496094 621.09375,0.9765625 C636.230469,-2.44140625 639.648438,11.71875 639.648438,11.71875 C639.648438,11.71875 648.925781,-2.9296875 664.0625,2.9296875 C683.276367,10.3662109 676.757812,29.7851562 676.757812,29.7851562 C676.757812,29.7851562 683.59375,21.9726562 691.40625,27.34375 C697.441406,31.4941406 696.777344,38.5742187 696.777344,38.5742187 C696.777344,38.5742187 709.472656,24.9023437 724.121094,35.15625 C735.185547,42.9003906 729.492188,57.1289062 729.492188,57.1289062 C729.492188,57.1289062 735.351562,58.59375 735.351562,63.4765625 C735.351562,70.3125 728.515625,71.7773438 728.515625,71.7773438 C728.515625,71.7773438 735.991211,80.6640625 730.957031,88.3789062 C723.632812,99.609375 709.960938,89.84375 709.960938,89.84375 C709.960938,89.84375 713.867188,96.1914062 708.007812,99.1210938 C702.148438,102.050781 697.753906,95.2148437 697.753906,95.2148437 C697.753906,95.2148437 699.389648,105.410156 683.59375,110.839844 C667.96875,116.210937 661.621094,105.957031 661.621094,105.957031 C661.621094,105.957031 660.566406,115.913086 645.019531,113.769531 C630.859375,111.816406 630.371094,100.097656 630.371094,100.097656 C630.371094,100.097656 625.976562,110.224609 615.722656,108.886719 C604.492188,107.421875 604.003906,95.2148437 604.003906,95.2148437 C604.003906,95.2148437 602.539062,104.125977 592.773438,103.515625 C584.960938,103.027344 583.496094,95.2148437 583.496094,95.2148437 C583.496094,95.2148437 579.589844,101.074219 573.242188,98.6328125 C568.686523,96.8798828 569.824219,89.3554687 569.824219,89.3554687 C569.824219,89.3554687 565.429688,95.703125 558.59375,92.7734375 C552.758789,90.2734375 554.6875,83.4960938 554.6875,83.4960938 Z" id="Path" fill="#EDF2F5"></path>
                        <circle id="Oval" fill="#FFF467" cx="156.738281" cy="104.003906" r="25.8789062"></circle>
                    </g>
                    <g id="beach-2" transform="translate(5.371094, 157.714844)">
                        <rect id="Rectangle" fill="#FFE3A3" x="32.7148438" y="6.34765625" width="902.34375" height="296.875"></rect>
                        <path d="M19.53125,0 L19.53125,212.978516 C24.0576172,211.68457 27.9345703,210.175781 29.7851562,208.496094 C35.15625,203.613281 34.1796875,200.683594 44.4335938,196.289062 C54.6875,191.894531 95.703125,189.453125 110.351562,187.5 C125,185.546875 136.71875,176.757812 146.484375,178.710938 C156.25,180.664062 169.433594,190.429688 187.011719,189.453125 C204.589844,188.476562 226.074219,187.011719 242.1875,178.222656 C258.300781,169.433594 283.203125,173.828125 299.804688,165.039062 C316.40625,156.25 310.058594,151.367188 321.289062,146.972656 C332.519531,142.578125 383.789062,146.972656 397.460938,141.601562 C411.132812,136.230469 428.710938,129.394531 455.566406,128.90625 C482.421875,128.417969 494.140625,103.027344 510.742188,100.585938 C510.742188,100.585938 537.597656,94.2382812 552.246094,94.7265625 C566.894531,95.2148438 547.851562,85.9375 566.894531,83.984375 C585.9375,82.03125 659.667969,70.8007812 671.875,69.3359375 C684.082031,67.8710938 662.109375,61.0351562 667.480469,54.6875 C672.851562,48.3398438 695.800781,41.9921875 713.378906,41.5039062 C730.957031,41.015625 901.367188,20.0195312 901.367188,20.0195312 L924.287109,252.929688 L935.058594,252.929688 L935.058594,0 L19.53125,0 Z" id="Path" fill="#B0E1F9"></path>
                        <path d="M16.1132812,202.636719 C16.1132812,202.636719 17.578125,203.125 20.0195312,200.683594 C22.4609375,198.242187 29.296875,190.429687 32.7148438,188.476562 C36.1328125,186.523437 51.2695312,182.128906 59.0820312,181.640625 C66.8945312,181.152344 93.75,179.199219 100.585938,177.734375 C114.257812,174.804687 136.230469,159.179687 142.089844,159.179687 C147.949219,159.179687 176.269531,168.457031 183.59375,171.386719 C190.917969,174.316406 199.638672,177.84668 206.542969,176.757812 C225.097656,173.828125 230.957031,158.691406 239.746094,155.273437 C239.746094,155.273437 291.503906,155.761719 297.851562,152.34375 C304.199219,148.925781 305.175781,131.835937 311.523438,127.929687 C317.871094,124.023437 377.929688,132.8125 382.324219,131.347656 C386.71875,129.882812 396.484375,115.722656 403.320312,113.769531 C410.15625,111.816406 451.171875,122.558594 467.285156,115.722656 C483.398438,108.886719 484.863281,94.7265625 492.675781,91.3085937 C500.488281,87.890625 541.503906,88.8671875 544.433594,84.9609375 C547.363281,81.0546875 544.921875,73.7304687 549.804688,69.8242187 C554.6875,65.9179687 586.425781,62.9882812 602.539062,62.0117187 C618.652344,61.0351562 651.855469,61.5234375 654.785156,58.59375 C657.714844,55.6640625 652.832031,37.5976562 654.785156,36.1328125 C656.738281,34.6679687 868.652344,14.6484375 875,14.1601562 C881.347656,13.671875 910.644531,11.2304687 910.644531,11.2304687 L905.761719,1.46484375 C905.761719,1.46484375 659.667969,15.1367187 649.902344,23.4375 C640.136719,31.7382812 648.4375,43.9453125 642.578125,49.3164062 C636.71875,54.6875 555.175781,50.2929687 544.921875,55.6640625 C534.667969,61.0351562 541.015625,74.7070312 536.132812,77.6367187 C531.25,80.5664062 496.09375,77.6367187 483.886719,81.5429687 C471.679688,85.4492187 469.726562,104.003906 463.378906,106.933594 C457.03125,109.863281 404.785156,91.796875 395.019531,98.1445312 C385.253906,104.492187 384.277344,118.652344 377.441406,120.117187 C370.605469,121.582031 312.988281,104.492187 303.222656,114.257812 C293.457031,124.023437 295.898438,139.160156 290.039062,143.066406 C284.179688,146.972656 251.601562,130.234375 231.933594,137.695312 C217.773438,143.066406 210.9375,163.574219 203.613281,164.550781 C196.289062,165.527344 153.808594,136.71875 133.300781,145.507812 C117.514648,152.270508 107.910156,163.085937 98.1445312,164.0625 C88.3789062,165.039062 62.0117188,154.785156 42.4804688,162.109375 C22.9492188,169.433594 0,180.664062 0,180.664062 L16.1132812,202.636719 Z" id="Path" fill="#CDEBFB"></path>
                        <path d="M655.761719,32.7148438 C647.460938,38.5742188 658.691406,57.1289063 650.390625,58.1054688 C642.089844,59.0820313 559.570312,59.0820313 550.292969,66.8945313 C541.015625,74.7070312 550.292969,83.0078125 538.574219,84.4726562 C526.855469,85.9375 501.464844,83.0078125 490.722656,91.796875 C479.980469,100.585938 477.539062,113.28125 463.378906,115.234375 C449.21875,117.1875 416.015625,108.886719 404.785156,111.816406 C393.554688,114.746094 386.71875,130.371094 379.882812,129.882812 C373.046875,129.394531 325.195312,120.605469 313.476562,125 C301.757812,129.394531 307.128906,148.4375 295.898438,151.367188 C284.667969,154.296875 252.929688,149.902344 241.699219,153.320312 C230.46875,156.738281 220.703125,173.828125 207.519531,175.78125 C194.335938,177.734375 153.808594,153.808594 139.160156,158.691406 C124.511719,163.574219 114.746094,172.851563 104.003906,175.78125 C93.2617188,178.710938 46.875,179.199219 33.203125,186.523438 C28.9550781,188.798828 24.1455078,193.994141 19.53125,200.073242 L19.53125,212.978516 C24.0576172,211.68457 27.9345703,210.175781 29.7851562,208.496094 C35.15625,203.613281 34.1796875,200.683594 44.4335938,196.289063 C54.6875,191.894531 95.703125,189.453125 110.351562,187.5 C125,185.546875 136.71875,176.757813 146.484375,178.710938 C156.25,180.664063 169.433594,190.429688 187.011719,189.453125 C204.589844,188.476563 226.074219,187.011719 242.1875,178.222656 C258.300781,169.433594 283.203125,173.828125 299.804688,165.039063 C316.40625,156.25 310.058594,151.367188 321.289062,146.972656 C332.519531,142.578125 383.789062,146.972656 397.460938,141.601563 C411.132812,136.230469 428.710938,129.394531 455.566406,128.90625 C482.421875,128.417969 494.140625,103.027344 510.742188,100.585938 C510.742188,100.585938 537.597656,94.2382813 552.246094,94.7265625 C566.894531,95.2148438 547.851562,85.9375 566.894531,83.984375 C585.9375,82.03125 659.667969,70.8007812 671.875,69.3359375 C684.082031,67.8710938 662.109375,61.0351563 667.480469,54.6875 C672.851562,48.3398438 695.800781,41.9921875 713.378906,41.5039063 C730.957031,41.015625 901.367188,20.0195312 901.367188,20.0195312 L935.058594,7.19726563 C887.558594,11.8066406 663.183594,27.4755859 655.761719,32.7148438 Z M65.9570312,189.868164 C59.9267578,189.726563 53.7939453,189.907227 53.5253906,188.208008 C53.2568359,186.508789 57.890625,184.375 63.8720703,183.442383 C69.8535156,182.509766 75.8056641,183.198242 76.0791016,184.907227 C76.3525391,186.616211 76.1962891,190.102539 65.9570312,189.868164 Z M82.4121094,185.058594 C82.2814663,185.611217 81.8239026,186.026262 81.261196,186.102559 C80.6984894,186.178856 80.1469263,185.900639 79.8738454,185.402757 C79.6007645,184.904874 79.6625994,184.290217 80.0293792,183.856705 C80.396159,183.423193 80.9920867,183.260414 81.5283203,183.447266 C82.2139644,183.652345 82.6076851,184.370179 82.4121094,185.058594 Z M86.875,185.996094 C85.8642578,186.181641 84.921875,185.644531 84.7558594,184.794922 C84.5898438,183.945312 85.2880859,183.095703 86.3037109,182.910156 C87.3193359,182.724609 88.2568359,183.261719 88.4228516,184.111328 C88.5888672,184.960937 87.890625,185.81543 86.875,186.005859 L86.875,185.996094 Z M113.574219,182.885742 C112.912005,182.936811 112.327933,182.455133 112.251984,181.795311 C112.176035,181.135488 112.635395,180.533705 113.291893,180.432984 C113.948391,180.332262 114.567031,180.768655 114.692383,181.420898 C114.742356,181.765154 114.652147,182.115069 114.441963,182.392255 C114.231779,182.669441 113.919189,182.850729 113.574219,182.895508 L113.574219,182.885742 Z M127.929688,177.734375 C122.700195,179.516602 117.5,181.640625 116.640625,180.141602 C115.78125,178.642578 118.964844,175.209961 123.75,172.446289 C128.535156,169.682617 133.90625,168.457031 134.765625,169.921875 C135.625,171.386719 136.811523,174.707031 127.929688,177.734375 Z M145.12207,166.90918 C144.896323,166.134519 145.170177,165.300783 145.811297,164.810858 C146.452417,164.320934 147.32881,164.275687 148.016975,164.696982 C148.70514,165.118277 149.063399,165.919379 148.918628,166.713168 C148.773858,167.506958 148.155864,168.130012 147.363281,168.28125 C146.366159,168.517115 145.365466,167.90449 145.12207,166.90918 Z M148.339844,173.652344 C147.390489,173.728387 146.551574,173.038592 146.442718,172.092438 C146.333862,171.146284 146.994209,170.283997 147.936028,170.142459 C148.877847,170.000921 149.762473,170.631027 149.936523,171.567383 C150.066607,172.582766 149.354032,173.513254 148.339844,173.652344 L148.339844,173.652344 Z M156.791992,172.055664 C156.489258,173.305664 155.024414,172.055664 153.510742,171.708984 C151.99707,171.362305 151.015625,170.043945 151.313477,168.779297 C151.611328,167.514648 153.076172,166.826172 154.589844,167.172852 C156.103516,167.519531 157.089844,170.805664 156.791992,172.055664 Z M178.310547,182.207031 C177.607422,184.648438 172.744141,183.295898 167.436523,181.757813 C162.128906,180.219727 157.705078,178.554688 158.413086,176.108398 C159.121094,173.662109 161.147461,166.967773 169.233398,172.124023 C173.999023,175.15625 180.019531,176.235352 178.310547,182.207031 Z M183.984375,183.417969 C183.035021,183.494012 182.196105,182.804217 182.087249,181.858063 C181.978393,180.911909 182.63874,180.049622 183.580559,179.908084 C184.522378,179.766546 185.407004,180.396652 185.581055,181.333008 C185.711139,182.348391 184.998564,183.278879 183.984375,183.417969 L183.984375,183.417969 Z M228.320312,176.547852 C227.578125,176.689453 226.855469,175.283203 226.75293,174.594727 C226.699001,173.893685 227.183743,173.265327 227.875515,173.13955 C228.567286,173.013773 229.242187,173.431287 229.438477,174.106445 C229.560547,174.804688 229.0625,176.411133 228.320312,176.547852 L228.320312,176.547852 Z M244.536133,170.43457 C239.047852,171.777344 235.522461,176.733398 232.387695,171.37207 C231.098633,169.174805 234.02832,165.249023 238.813477,162.475586 C243.598633,159.702148 249.262695,158.999023 250.532227,161.206055 C251.801758,163.413086 253.847656,168.149414 244.536133,170.43457 Z M253.813477,160.957031 C252.864122,161.033075 252.025207,160.343279 251.916351,159.397126 C251.807495,158.450972 252.467841,157.588685 253.40966,157.447146 C254.351479,157.305608 255.236105,157.935714 255.410156,158.87207 C255.540089,159.889118 254.824758,160.820358 253.808594,160.957031 L253.813477,160.957031 Z M263.012695,164.375 C259.873047,163.71582 256.782227,165.205078 256.591797,161.933594 C256.513672,160.600586 259.033203,159.453125 262.1875,159.282227 C265.341797,159.111328 268.408203,160.112305 268.481445,161.445312 C268.554688,162.77832 268.344727,165.46875 263.007813,164.350586 L263.012695,164.375 Z M273.833008,163.886719 C272.883653,163.962762 272.044738,163.272967 271.935882,162.326813 C271.827026,161.380659 272.487373,160.518372 273.429192,160.376834 C274.371011,160.235296 275.255637,160.865402 275.429687,161.801758 C275.559621,162.818806 274.844289,163.750045 273.828125,163.886719 L273.833008,163.886719 Z M312.250977,134.057617 C313.203405,133.978882 314.046769,134.669405 314.157521,135.618644 C314.268274,136.567882 313.606533,137.434013 312.661562,137.576658 C311.71659,137.719303 310.828673,137.087095 310.654297,136.147461 C310.523916,135.132706 311.23317,134.201538 312.246094,134.057617 L312.250977,134.057617 Z M315.488281,143.735352 C315.185547,144.985352 313.720703,145.688477 312.207031,145.341797 C310.693359,144.995117 309.711914,143.676758 310.009766,142.412109 C310.307617,141.147461 311.772461,140.458984 313.286133,140.805664 C314.799805,141.152344 315.78125,142.485352 315.483398,143.735352 L315.488281,143.735352 Z M325.351562,138.120117 C317.163086,139.936523 316.879883,135.537109 317.011719,133.359375 C317.143555,131.181641 321.860352,129.550781 326.689453,129.84375 C331.518555,130.136719 335.361328,132.011719 335.224609,134.189453 C334.87793,139.492188 330.166016,137.050781 325.34668,138.120117 L325.351562,138.120117 Z M345.073242,136.518555 C339.741211,137.636719 339.53125,134.946289 339.604492,133.613281 C339.677734,132.280273 342.749023,131.274414 345.90332,131.450195 C349.057617,131.625977 351.577148,132.768555 351.499023,134.101563 C351.303711,137.348633 348.212891,135.859375 345.068359,136.518555 L345.073242,136.518555 Z M397.368164,135.078125 C396.41881,135.154168 395.579894,134.464373 395.471038,133.518219 C395.362182,132.572066 396.022529,131.709778 396.964348,131.56824 C397.906167,131.426702 398.790793,132.056808 398.964844,132.993164 C399.094777,134.010212 398.379445,134.941452 397.363281,135.078125 L397.368164,135.078125 Z M410.644531,129.394531 C405.415039,131.176758 399.726563,131.347656 398.867188,129.848633 C398.007813,128.349609 401.855469,122.070312 404.296875,120.117187 C407.275391,117.734375 416.132813,118.139648 416.992188,119.628906 C417.851563,121.118164 419.526367,126.367187 410.644531,129.394531 Z M420.898437,125.488281 C420.722656,124.511719 421.303711,120.3125 422.363281,120.117187 C423.422852,119.921875 429.199219,122.558594 429.199219,123.535156 C429.199219,125.976562 421.074219,126.464844 420.898437,125.488281 Z M437.06543,123.71582 C436.762695,124.96582 435.297852,125.668945 433.78418,125.322266 C432.270508,124.975586 431.289062,123.657227 431.586914,122.392578 C431.884766,121.12793 433.349609,120.439453 434.863281,120.786133 C436.376953,121.132812 437.363281,122.46582 437.06543,123.71582 Z M491.503906,104.282227 C490.841693,104.333296 490.25762,103.851618 490.181671,103.191795 C490.105722,102.531972 490.565083,101.93019 491.221581,101.829468 C491.878079,101.728746 492.496719,102.165139 492.62207,102.817383 C492.669214,103.160104 492.577685,103.507471 492.367777,103.78246 C492.157869,104.057448 491.846929,104.237333 491.503906,104.282227 L491.503906,104.282227 Z M495.996094,100.410156 C495.046739,100.4862 494.207824,99.7964041 494.098968,98.8502505 C493.990112,97.9040969 494.650459,97.0418097 495.592278,96.9002714 C496.534097,96.7587332 497.418723,97.3888393 497.592773,98.3251953 C497.722857,99.3405785 497.010282,100.271066 495.996094,100.410156 L495.996094,100.410156 Z M509.765625,95.2148437 C506.347656,96.1914062 500,100.097656 499.023437,96.6796875 C498.188477,93.75 507.729492,92.4804687 508.789062,92.2851562 C509.848633,92.0898438 516.914062,91.796875 517.089844,92.7734375 C517.265625,93.75 510.800781,94.9169922 509.765625,95.2148437 Z M550.585938,83.7744141 C549.923724,83.8254831 549.339652,83.3438053 549.263702,82.6839825 C549.187753,82.0241596 549.647114,81.4223771 550.303612,81.3216555 C550.96011,81.220934 551.57875,81.6573268 551.704102,82.3095703 C551.751246,82.6522912 551.659716,82.9996586 551.449808,83.2746473 C551.2399,83.549636 550.92896,83.7295208 550.585938,83.7744141 L550.585938,83.7744141 Z M552.631836,88.7109375 C551.699365,88.5198842 551.085631,87.6247486 551.243538,86.6860962 C551.401446,85.7474438 552.274283,85.102391 553.217939,85.2269547 C554.161595,85.3515184 554.837157,86.2009616 554.746094,87.1484375 C554.673804,87.6364253 554.410162,88.0755374 554.013432,88.3687326 C553.616703,88.6619278 553.119548,88.7850672 552.631836,88.7109375 L552.631836,88.7109375 Z M565.859375,74.6972656 C565.595703,80.5859375 564.453125,77.1386719 558.710938,80.1513672 C552.475586,83.4082031 551.313477,79.6240234 550.957031,77.7099609 C550.600586,75.7958984 554.082031,73.4667969 558.037109,72.6611328 C563.505859,71.5332031 566.132812,68.6474609 565.859375,74.7070312 L565.859375,74.6972656 Z M600.917969,66.7089844 C601.580182,66.6579153 602.164255,67.1395931 602.240204,67.799416 C602.316153,68.4592389 601.856792,69.0610213 601.200294,69.1617429 C600.543796,69.2624645 599.925156,68.8260716 599.799805,68.1738281 C599.704433,67.4606462 600.204879,66.8050409 600.917969,66.7089844 Z M578.125,76.171875 C569.775391,78.9550781 568.359375,78.125 567.807617,74.9560547 C566.635742,68.1933594 571.850586,68.9746094 577.353516,68.4960938 C584.472656,67.8710938 587.568359,66.40625 587.890625,70.3125 C588.378906,76.171875 585.449219,73.7304688 578.125,76.171875 Z M590.820312,73.7646484 C589.355469,73.7304687 588.378906,67.8710937 590.629883,68.203125 C591.694336,68.359375 597.880859,68.515625 598.168945,69.4433594 C598.891602,71.7773437 591.796875,73.7890625 590.820312,73.7646484 Z M602.299805,73.6328125 C601.522529,74.1833765 600.44878,74.019027 599.871773,73.2611745 C599.294765,72.503322 599.422036,71.4245501 600.159566,70.8217834 C600.897096,70.2190168 601.979611,70.309058 602.607422,71.0253906 C603.240295,71.8309767 603.102775,72.9966236 602.299805,73.6328125 Z M606.835938,69.6484375 C605.886583,69.7244809 605.047668,69.0346854 604.938812,68.0885318 C604.829956,67.1423782 605.490302,66.2800909 606.432121,66.1385527 C607.37394,65.9970145 608.258566,66.6271206 608.432617,67.5634766 C608.562701,68.5788597 607.850126,69.5093476 606.835938,69.6484375 Z M616.699219,71.2890625 C608.886719,72.265625 611.816406,65.8349609 616.699219,65.4296875 C622.558594,64.9414062 642.089844,62.5 642.578125,65.9179688 C643.066406,69.3359375 624.511719,70.3125 616.699219,71.2890625 Z M669.921875,47.3632812 C661.499023,51.7285156 659.804688,48.3056641 659.604492,46.1474609 C659.179688,41.5039062 663.657227,40.2880859 669.150391,39.6875 C674.804687,39.0625 679.594727,39.5117187 679.6875,41.5039062 C679.936523,46.7773438 674.882813,44.7900391 669.921875,47.3632812 Z M687.285156,41.2646484 C686.416016,42.4414063 685.732422,42.5439453 683.867188,41.7529297 C682.001953,40.9619141 682.402344,38.8232422 682.573242,37.7587891 C682.744141,36.6943359 685.888672,36.5673828 687.06543,37.4365234 C689.423828,39.1992187 688.15918,40.0878906 687.285156,41.2646484 Z M692.871094,41.015625 C691.792413,41.015625 690.917969,40.1411812 690.917969,39.0625 C690.917969,37.9838188 691.792413,37.109375 692.871094,37.109375 C693.949775,37.109375 694.824219,37.9838188 694.824219,39.0625 C694.824219,40.1411812 693.949775,41.015625 692.871094,41.015625 Z" id="Shape" fill="#EDF2F5"></path>
                        <path d="M30.7617188,154.785156 C30.7617188,154.785156 41.5039062,148.925781 49.8046875,147.949219 C58.1054688,146.972656 81.5429688,153.320313 92.7734375,151.367188 C104.003906,149.414063 113.28125,139.648438 135.253906,135.742188 C170.820312,129.418945 192.382812,150.878906 198.242187,149.414063 C204.101562,147.949219 202.636719,146.972656 198.242187,145.507813 C194.707031,144.331055 163.657227,125.517578 133.789062,131.347656 C113.769531,135.253906 101.074219,145.996094 91.796875,147.460938 C82.5195312,148.925781 60.546875,141.113281 49.3164062,142.578125 C38.0859375,144.042969 31.25,147.949219 28.3203125,150.878906 C25.390625,153.808594 25.390625,157.714844 30.7617188,154.785156 Z" id="Path" fill="#CDEBFB"></path>
                        <path d="M214.84375,142.578125 C217.133789,139.902344 223.632812,132.119141 230.46875,129.394531 C240.234375,125.488281 274.902344,131.835938 279.296875,130.371094 C283.691406,128.90625 291.015625,108.398438 308.59375,102.539062 C338.071289,92.7148438 360.839844,109.863281 372.558594,107.910156 C378.378906,106.933594 383.789062,95.703125 390.136719,90.8203125 C396.484375,85.9375 391.113281,85.4492188 387.695312,87.4023438 C384.277344,89.3554688 376.333008,102.285156 371.582031,103.027344 C355.957031,105.46875 346.513672,86.1962891 307.128906,98.6328125 C288.574219,104.492188 280.761719,122.558594 277.34375,124.511719 C273.925781,126.464844 240.234375,118.652344 228.027344,123.535156 C221.289062,126.230469 214.84375,136.71875 212.890625,139.648438 C210.9375,142.578125 211.914062,145.996094 214.84375,142.578125 Z" id="Path" fill="#CDEBFB"></path>
                        <path d="M458.007813,92.2851562 C460.297852,89.609375 473.632813,74.9902344 480.46875,72.265625 C490.234375,68.359375 514.414063,69.0185547 519.042969,68.8476562 C532.226563,68.359375 527.34375,52.2460938 544.921875,46.3867187 C574.399414,36.5625 611.816406,42.96875 623.535156,41.015625 C629.355469,40.0390625 635.253906,24.4140625 641.601563,19.53125 C647.949219,14.6484375 642.578125,14.1601562 639.160156,16.1132812 C635.742188,18.0664062 627.30957,35.390625 622.558594,36.1328125 C606.933594,38.5742188 582.841797,30.0439453 543.457031,42.4804687 C524.902344,48.3398438 528.808594,62.5 517.089844,62.9882812 C513.154297,63.1542969 488.28125,64.453125 476.074219,69.3359375 C469.335938,72.03125 455.566406,87.4023438 453.613281,90.3320312 C451.660156,93.2617187 455.078125,95.703125 458.007813,92.2851562 Z" id="Path" fill="#CDEBFB"></path>
                        <path d="M92.2851562,136.71875 C95.0244141,134.506836 125.976562,122.558594 139.160156,122.070312 C149.672852,121.679688 191.542969,126.953125 196.12793,127.646484 C209.179688,129.56543 210.385742,110.786133 228.59375,107.338867 C243.652344,104.492188 259.84375,110.297852 271.713867,110.512695 C277.612305,110.620117 289.550781,89.84375 328.056641,88.28125 C334.555664,88.0175781 330.214844,84.3310547 326.279297,84.4775391 C287.597656,85.9423828 276.450195,105.668945 271.640625,105.532227 C255.834961,105.087891 237.612305,102.1875 227.861328,103.232422 C207.03125,105.46875 201.982422,119.775391 195.273438,121.52832 C189.453125,123.046875 166.098633,117.060547 135.214844,118.349609 C116.210938,119.140625 93.2617188,130.776367 90.8203125,133.300781 C88.3789062,135.825195 88.7841797,139.545898 92.2851562,136.71875 Z" id="Path" fill="#CDEBFB"></path>
                        <path d="M368.164062,93.2617188 C370.90332,91.0498047 393.066406,74.21875 408.203125,70.3125 C418.388672,67.6855469 436.660156,67.8710938 441.245117,68.5644531 C454.296875,70.4833984 455.50293,51.7041016 473.710938,48.2568359 C488.769531,45.4101563 504.960938,51.2158203 516.831055,51.4306641 C522.729492,51.5380859 534.667969,30.7617188 573.173828,29.1992188 C579.672852,28.9355469 575.332031,25.2490234 571.396484,25.3955078 C532.714844,26.8603516 521.567383,46.5869141 516.757813,46.4501953 C500.952148,46.0058594 482.729492,43.1054688 472.978516,44.1503906 C452.148438,46.3867188 447.099609,60.6933594 440.390625,62.4462891 C434.570312,63.9648438 422.851562,59.5703125 404.296875,66.5917969 C384.414062,74.0966797 369.140625,87.3193359 366.699219,89.84375 C364.257812,92.3681641 364.663086,96.0888672 368.164062,93.2617188 Z" id="Path" fill="#CDEBFB"></path>
                    </g>
                    <g id="sandcastles" transform="translate(679.687500, 291.503906)">
                        <path d="M74.84375,24.3310547 C71.1328125,24.140625 59.9707031,25.4785156 58.7304687,27.3828125 C57.4902344,29.2871094 57.0800781,46.8115234 56.25,50.2441406 C55.4199219,53.6767578 52.9443359,67.7685547 52.9443359,67.7685547 C52.9443359,67.7685547 59.9707031,71.5771484 74.0185547,71.1865234 C88.0664063,70.7958984 95.9130859,66.9970703 95.9130859,66.9970703 C95.9130859,66.9970703 93.0224609,50.6152344 92.6123047,46.4208984 C92.2216797,42.4609375 90.7080078,34.7021484 90.5419922,31.3964844 C90.5419922,29.8730469 88.0273437,32.2265625 76.8701172,32.6074219 C70.0341797,32.8417969 63.6865234,32.734375 63.6865234,31.1425781 C63.6865234,29.6777344 69.7216797,31.2744141 76.4990234,31.015625 C83.0664063,30.7666016 90.5419922,29.2773438 90.2978516,28.1201172 C89.7705078,25.6298828 81.5429688,24.6777344 74.84375,24.3310547 Z" id="Path" fill="#F9D48D"></path>
                        <rect id="Rectangle" fill="#BA9582" x="72.9638672" y="0.390625" width="1.953125" height="27.34375" rx="0.9765625"></rect>
                        <path d="M88.1005859,3.3203125 L88.1005859,15.0390625 C88.1005859,15.0390625 85.4931641,16.015625 83.4033203,15.0390625 C81.3134766,14.0625 78.7060547,12.5976563 77.1435547,12.5976563 C75.7406124,12.6623651 74.3439471,12.825527 72.9638672,13.0859375 L72.9638672,2.76367188 C74.2920462,2.21493211 75.7074212,1.90738569 77.1435547,1.85546875 C81.3183594,1.85546875 81.8408203,3.80859375 83.9257813,3.80859375 C85.3302123,3.78588789 86.7288204,3.62230799 88.1005859,3.3203125 L88.1005859,3.3203125 Z" id="Path" fill="#BBB6DB"></path>
                        <path d="M22.109375,59.9755859 C18.3984375,59.7851563 7.23632812,61.1230469 5.99609375,63.0273438 C4.75585938,64.9316406 4.34570312,82.4560547 3.515625,85.8886719 C2.68554688,89.3212891 0.209960938,103.413086 0.209960938,103.413086 C0.209960938,103.413086 7.23632813,107.22168 21.2841797,106.831055 C35.3320313,106.44043 43.1787109,102.641602 43.1787109,102.641602 C43.1787109,102.641602 40.2880859,86.2597656 39.8779297,82.0654297 C39.4873047,78.1054688 37.9736328,70.3466797 37.8076172,67.0410156 C37.8076172,65.5175781 35.2929687,67.8710938 24.1357422,68.2519531 C17.2998047,68.4863281 10.9521484,68.3789063 10.9521484,66.7871094 C10.9521484,65.3222656 16.9873047,66.9189453 23.7646484,66.6601563 C30.3320313,66.4111328 37.8076172,64.921875 37.5634766,63.7646484 C37.0361328,61.2744141 28.8085938,60.3222656 22.109375,59.9755859 Z" id="Path" fill="#F9D48D"></path>
                        <rect id="Rectangle" fill="#BA9582" x="20.2294922" y="36.0351562" width="1.953125" height="27.34375" rx="0.9765625"></rect>
                        <path d="M35.3662109,38.9648437 L35.3662109,50.6835937 C35.3662109,50.6835937 32.7587891,51.6601562 30.6689453,50.6835937 C28.5791016,49.7070312 25.9716797,48.2421875 24.4091797,48.2421875 C23.0062374,48.3068964 21.6095721,48.4700582 20.2294922,48.7304687 L20.2294922,38.4082031 C21.5576712,37.8594634 22.9730462,37.5519169 24.4091797,37.5 C28.5839844,37.5 29.1064453,39.453125 31.1914063,39.453125 C32.5958373,39.4304191 33.9944454,39.2668392 35.3662109,38.9648438 L35.3662109,38.9648437 Z" id="Path" fill="#94D9F8"></path>
                        <path d="M90.9570312,83.4130859 C87.2460938,83.2226563 76.0839844,84.5605469 74.84375,86.4648438 C73.6035156,88.3691406 73.1933594,105.893555 72.3632813,109.326172 C71.5332031,112.758789 69.0576172,126.850586 69.0576172,126.850586 C69.0576172,126.850586 76.0839844,130.65918 90.1318359,130.268555 C104.179688,129.87793 112.026367,126.079102 112.026367,126.079102 C112.026367,126.079102 109.135742,109.697266 108.725586,105.50293 C108.334961,101.542969 106.821289,93.7841797 106.655273,90.4785156 C106.655273,88.9550781 104.140625,91.3085938 92.9833984,91.6894531 C86.1474609,91.9238281 79.7998047,91.8164063 79.7998047,90.2246094 C79.7998047,88.7597656 85.8349609,90.3564453 92.6123047,90.0976563 C99.1796875,89.8486328 106.655273,88.359375 106.411133,87.2021484 C105.883789,84.7119141 97.65625,83.7597656 90.9570312,83.4130859 Z" id="Path" fill="#F9D48D"></path>
                        <rect id="Rectangle" fill="#BA9582" x="89.0771484" y="59.4726562" width="1.953125" height="27.34375" rx="0.9765625"></rect>
                        <path d="M104.213867,62.4023437 L104.213867,74.1210938 C104.213867,74.1210938 101.606445,75.0976562 99.5166016,74.1210938 C97.4267578,73.1445312 94.8193359,71.6796875 93.2568359,71.6796875 C91.8538937,71.7443964 90.4572283,71.9075582 89.0771484,72.1679687 L89.0771484,61.8457031 C90.4053275,61.2969634 91.8207024,60.9894169 93.2568359,60.9375 C97.4316406,60.9375 97.9541016,62.890625 100.039063,62.890625 C101.443494,62.8679191 102.842102,62.7043392 104.213867,62.4023438 L104.213867,62.4023437 Z" id="Path" fill="#F69173"></path>
                    </g>
                    <g id="bucket" transform="translate(802.734375, 315.429688)">
                        <path d="M50.0146484,44.8242187 C49.3268982,44.2525383 48.526751,43.8316709 47.6660156,43.5888672 C46.8164063,38.7060547 44.8779297,27.3583984 44.53125,23.8818359 C44.1162109,19.6484375 42.5,11.3671875 42.3242188,7.82714844 C42.3242188,6.20117187 39.6386719,8.71582031 27.7246094,9.12109375 C20.4003906,9.37011719 13.6376953,9.2578125 13.6376953,7.55859375 C13.6376953,5.99121094 20.0878906,7.6953125 27.3095703,7.421875 C34.3261719,7.15820312 42.3144531,5.56640625 42.0556641,4.33105469 C41.4892578,1.65527344 32.6855469,0.639648437 25.546875,0.2734375 C21.5820313,0.0732421875 9.65820313,1.49414062 8.33496094,3.53027344 C7.01171875,5.56640625 6.56738281,24.2871094 5.68847656,27.9443359 C5.02441406,30.6982422 3.36425781,39.8730469 2.578125,44.2724609 C2.09178352,44.4010448 1.62164096,44.5845151 1.17675781,44.8193359 C-0.37109375,45.6542969 0.200195313,52.1435547 1.17675781,53.6083984 C2.15332031,55.0732422 13.3837891,58.0029297 25.1025391,57.5146484 C37.7978516,56.9824219 48.5400391,53.1201172 50.0048828,51.6552734 C51.4697266,50.1904297 51.3623047,45.9619141 50.0146484,44.8242187 Z" id="Path" fill="#AFD472"></path>
                        <path d="M55.3857422,38.9648437 C52.5182098,38.4151192 49.6123612,38.0886193 46.6943359,37.9882812 L47.109375,40.4296875 C49.7303253,40.6029137 52.338929,40.9289892 54.921875,41.40625 C60.2929687,42.3828125 62.2460937,50.6835937 51.5039062,54.1015625 C42.7148437,56.8994141 30.3125,52.8222656 26.1132812,51.2548828 L26.1132812,51.171875 C26.11428,49.816355 25.1852484,48.6371514 23.8671393,48.3208859 C22.5490302,48.0046205 21.1860764,48.6338881 20.571893,49.8422814 C19.9577096,51.0506747 20.2526948,52.5226137 21.2850857,53.4010239 C22.3174766,54.2794342 23.8176575,54.3349129 24.9121094,53.5351562 L25.1367187,53.6132812 C35.9814453,57.2265625 44.3066406,58.0078125 51.5039062,56.5429687 C58.828125,55.078125 62.2460937,49.7070312 62.2460937,46.7773437 C62.2460937,43.8476562 60.2685547,39.9414062 55.3857422,38.9648437 Z" id="Path" fill="#EDF2F5"></path>
                    </g>
                </g>
            </g>
        </g>
    </g>
</svg>