<!-- Generated by IcoMoon.io -->
<svg version="1.1" xmlns="http://www.w3.org/2000/svg" width="891" height="1024" viewBox="0 0 891 1024">
<title></title>
<g id="icomoon-ignore">
</g>
<path d="M851.004 344.576l-12.8-2.56t-16.384-2.048-15.872-1.024-11.264-0.512q-36.864 0-61.44 19.968t-38.912 53.76-20.48 77.824-6.144 92.16v155.648h-68.608v-115.712q-10.24 23.552-24.064 46.080t-32.256 40.448-40.448 28.672-49.664 10.752q-38.912 0-62.976-29.184t-29.184-68.096q-21.504 38.912-61.952 68.096t-90.624 29.184q-75.776 0-122.368-55.296t-46.592-160.768q0-59.392 17.92-106.496t51.2-80.384 80.896-51.2 107.008-17.92q20.48 0 34.816 1.024t27.136 3.584 27.648 6.656 36.352 11.264v308.224q0 14.336 2.56 29.696t8.704 27.648 15.872 20.48 24.064 8.192q21.504 0 41.984-21.504t37.376-50.688 29.184-59.904 17.408-49.152v-96.256q0-23.552-1.024-39.936t-2.56-30.208-3.584-27.648-5.12-31.232h63.488q4.096 16.384 6.144 28.672t3.072 24.064 1.536 23.552 0.512 27.136q20.48-55.296 52.736-84.48t84.48-29.184q3.072 0 10.752 1.536t15.872 3.072 15.872 3.584 10.752 3.072zM352.316 353.792q-20.48-6.144-37.888-8.192t-34.816-2.048q-75.776 0-120.32 51.712t-44.544 144.896q0 28.672 7.168 54.784t20.992 45.568 33.792 30.72 46.592 11.264q21.504 0 44.544-11.776t41.984-34.816 30.72-56.832 11.776-76.8v-148.48z"></path>
</svg>
