<!-- Generated by IcoMoon.io -->
<svg version="1.1" xmlns="http://www.w3.org/2000/svg" width="790" height="1024" viewBox="0 0 790 1024">
<title></title>
<g id="icomoon-ignore">
</g>
<path d="M725.24 227.328q0 18.432-13.312 31.232t-32.768 12.8q-23.552 0-36.352-13.824t-12.8-33.28q0-18.432 13.312-32.256t33.792-13.824 34.304 14.336 13.824 34.816zM637.176 830.464v-393.216q-8.192 2.048-20.48 4.608t-26.112 4.608-27.136 3.584-22.528 1.536q-23.552 0-48.64-2.048t-48.64-6.144q22.528 26.624 34.816 66.048t12.288 90.624q0 118.784-57.856 182.272t-156.16 63.488q-99.328 0-155.648-60.928t-56.32-176.64q0-116.736 57.344-179.712t156.672-62.976q28.672 0 53.248 5.12t51.2 10.752 58.368 10.752 74.752 5.12q47.104 0 82.432-6.656t46.592-10.752h64.512v450.56h-72.704zM415.992 598.016q0-77.824-34.816-124.416t-102.4-46.592q-68.608 0-102.912 50.688t-34.304 134.656q0 78.848 33.792 124.928t101.376 46.080q33.792 0 59.904-13.312t43.52-37.888 26.624-58.88 9.216-75.264z"></path>
</svg>
