<!-- Generated by IcoMoon.io -->
<svg version="1.1" xmlns="http://www.w3.org/2000/svg" width="668" height="1024" viewBox="0 0 668 1024">
<title></title>
<g id="icomoon-ignore">
</g>
<path d="M550.064 862.208v-303.104q0-96.256-56.32-96.256-19.456 0-35.328 18.432t-26.624 47.104-16.384 64-5.632 69.12v200.704h-72.704v-136.192q-10.24 30.72-24.064 58.368t-31.744 48.128-39.936 32.256-48.64 11.776q-46.080 0-71.68-32.256t-25.6-111.104v-270.336h-50.176v-51.2h50.176v-109.568h69.632v109.568h88.064v50.176h-88.064v273.408q0 43.008 9.728 64.512t34.304 21.504q20.48 0 39.936-23.552t36.352-57.856 30.208-72.192 21.504-66.56v-453.632h71.68v362.496q11.264-48.128 40.448-79.872t68.096-31.744q21.504 0 40.448 7.168t33.792 25.6 23.040 49.664 8.192 79.36v302.080h-72.704z"></path>
</svg>
