<!-- Generated by IcoMoon.io -->
<svg version="1.1" xmlns="http://www.w3.org/2000/svg" width="815" height="1024" viewBox="0 0 815 1024">
<title></title>
<g id="icomoon-ignore">
</g>
<path d="M771.020 506.368q0 118.784-43.52 182.272t-117.248 63.488-116.224-60.928-42.496-176.64q0-53.248 9.216-93.696t26.624-69.12q-19.456 2.048-41.472 4.096t-36.352 2.048q-16.384 0-38.4-2.048t-42.496-6.144q34.816 55.296 34.816 156.672 0 118.784-43.008 182.272t-116.736 63.488q-74.752 0-117.248-60.928t-42.496-176.64q0-116.736 43.008-179.712t117.76-62.976q36.864 0 69.632 16.384 34.816 8.192 66.56 12.288t64.512 4.096q35.84 0 68.608-2.56t59.392-6.656q34.816-23.552 78.848-23.552 73.728 0 116.224 59.904t42.496 174.592zM698.316 504.32q0-36.864-4.096-68.096t-14.336-53.248-26.624-34.816-40.96-12.8q-25.6 0-42.496 14.336t-26.624 38.912-13.312 57.856-3.584 72.192q0 36.864 3.584 68.096t12.8 53.248 25.6 34.816 41.984 12.8 42.496-14.336 27.136-38.912 14.336-57.856 4.096-72.192zM290.764 504.32q0-36.864-4.096-67.584t-13.824-53.248-26.624-35.328-41.472-12.8q-25.6 0-42.496 13.312t-26.624 37.376-13.312 56.832-3.584 71.68q0 36.864 3.584 68.096t13.312 54.784 26.112 36.864 40.96 13.312q25.6 0 42.496-14.336t27.136-38.912 14.336-57.856 4.096-72.192z"></path>
</svg>
