<!-- Generated by IcoMoon.io -->
<svg version="1.1" xmlns="http://www.w3.org/2000/svg" width="646" height="1024" viewBox="0 0 646 1024">
<title></title>
<g id="icomoon-ignore">
</g>
<path d="M632.76 849.92q-16.384 13.312-35.328 18.432t-33.28 5.12q-68.608 0-68.608-126.976v-179.2q0-49.152-12.288-72.192t-41.984-23.040q-20.48 0-34.816 14.848t-24.576 39.936-14.848 59.392-4.608 72.192v205.824h-69.632v-159.744q-4.096 21.504-16.384 50.688t-30.72 55.808-43.008 45.568-53.248 18.944q-92.16 0-92.16-146.432v-256h-44.032v-59.392h44.032v-97.28h66.56v97.28h81.92v58.368h-80.896v258.048q0 41.984 7.68 62.976t30.208 20.992q14.336 0 29.184-17.92t28.672-46.080 25.6-61.952 21.504-66.56 16.384-60.416 8.704-41.984v-370.688h66.56v332.8q5.12-13.312 15.36-27.648t23.040-25.6 27.648-18.432 29.184-7.168q21.504 0 41.984 6.144t35.84 24.576 25.088 52.224 9.728 89.088v171.008q0 67.584 29.696 67.584 8.192 0 14.848-4.608t19.968-15.872z"></path>
</svg>
