<!-- Generated by IcoMoon.io -->
<svg version="1.1" xmlns="http://www.w3.org/2000/svg" width="433" height="1024" viewBox="0 0 433 1024">
<title></title>
<g id="icomoon-ignore">
</g>
<path d="M412.084 85.504q-18.432-10.24-28.672-12.8t-26.624-2.56q-45.056 0-63.488 38.912t-18.432 128v31.744h110.592v61.44h-110.592v448.512q0 66.56-10.24 112.64t-31.232 74.752-52.224 40.96-73.216 12.288q-24.576 0-44.032-4.608t-46.080-17.92l6.144-61.44q26.624 12.288 44.032 17.92t34.816 5.632q20.48 0 38.912-5.632t32.256-26.624 21.504-60.416 7.68-107.008v-431.104h-89.088v-59.392h90.112v-44.032q0-113.664 34.816-166.912t109.568-53.248q20.48 0 33.28 2.56t33.28 11.776z"></path>
</svg>
