<!-- Generated by IcoMoon.io -->
<svg version="1.1" xmlns="http://www.w3.org/2000/svg" width="1034" height="1024" viewBox="0 0 1034 1024">
<title></title>
<g id="icomoon-ignore">
</g>
<path d="M1001.352 725.504q-17.408 14.336-29.184 18.432t-32.256 4.096q-35.84 0-57.856-21.504t-27.136-61.44q-53.248 83.968-136.192 83.968-35.84 0-65.536-13.824t-51.712-41.472-34.304-68.608-12.288-94.208q0-54.272 14.848-98.816t42.496-77.312q-29.696 3.072-55.296 5.12t-46.080 2.048q-55.296 0-117.76-12.288 40.96 59.392 40.96 154.624 0 114.688-53.76 180.736t-147.968 66.048-146.944-61.952-52.736-172.544q0-113.664 53.76-178.688t148.992-65.024q23.552 0 44.544 4.096t38.4 12.288q49.152 8.192 92.16 13.312t92.16 5.12q63.488 0 110.080-3.072t77.312-8.192q47.104-20.48 104.448-20.48 19.456 0 34.304 1.024t29.184 3.584 29.184 6.656 35.328 11.264v328.704q0 57.344 43.008 57.344 10.24 0 17.408-3.072t18.432-11.264v55.296zM851.848 354.816q-21.504-7.168-33.792-9.216t-31.744-2.048q-73.728 0-114.688 52.224t-40.96 147.456q0 65.536 24.576 99.84t71.68 34.304q58.368 0 91.648-51.2t33.28-140.288v-131.072zM361.352 502.272q0-79.872-32.768-122.88t-93.184-43.008q-61.44 0-94.72 47.616t-33.28 137.728q0 79.872 31.744 122.368t92.16 42.496 95.232-49.152 34.816-135.168z"></path>
</svg>
