<!-- Generated by IcoMoon.io -->
<svg version="1.1" xmlns="http://www.w3.org/2000/svg" width="1025" height="1024" viewBox="0 0 1025 1024">
<title></title>
<g id="icomoon-ignore">
</g>
<path d="M992.244 576.512q-19.456 13.312-35.328 18.432t-34.304 5.12q-70.656 0-83.968-75.776-52.224 77.824-135.168 77.824-62.464 0-96.256-32.768-23.552 78.848-58.88 139.264t-69.12 102.4q-39.936 49.152-82.944 84.992l-55.296-12.288v-353.28q-31.744 36.864-64.512 53.76t-74.752 16.896q-78.848 0-123.904-55.808t-45.056-152.064q0-57.344 15.36-105.984t46.080-83.968 76.288-55.296 107.008-19.968q19.456 0 34.304 0.512t29.184 3.072 30.208 6.656 37.376 10.24v645.12q40.96-44.032 74.752-100.352 28.672-48.128 52.224-114.688t23.552-148.48q0-70.656 0.512-144.896t-9.728-144.896h73.728q4.096 38.912 5.632 71.168t2.048 62.464 0 62.464-0.512 71.168q0 68.608 15.872 100.864t61.952 32.256q25.6 0 48.64-11.776t39.936-33.28 26.624-51.2 9.728-66.56v-237.568h70.656v331.776q0 68.608 41.984 68.608 9.216 0 17.92-3.584t28.16-14.848v54.272zM339.956 202.752q-19.456-6.144-30.72-8.192t-30.72-2.048q-82.944 0-126.976 53.248t-44.032 152.576q0 134.144 100.352 134.144 62.464 0 97.28-50.176t34.816-143.36v-136.192z"></path>
</svg>
