<!-- Generated by IcoMoon.io -->
<svg version="1.1" xmlns="http://www.w3.org/2000/svg" width="934" height="1024" viewBox="0 0 934 1024">
<title></title>
<g id="icomoon-ignore">
</g>
<path d="M901.688 848.896q-21.504 13.312-37.376 18.432t-34.304 5.12q-44.032 0-67.584-32.256t-23.552-94.72v-179.2q0-49.152-16.896-72.192t-55.808-23.040q-26.624 0-49.664 14.848t-39.936 39.936-26.624 59.392-9.728 72.192v205.824h-71.68v-180.224q-11.264 28.672-33.792 62.464t-53.248 62.976-69.12 48.64-81.408 19.456q-94.208 0-146.432-58.368t-52.224-163.84q0-117.76 57.344-185.344t156.672-67.584q16.384 0 29.184 1.024t24.576 3.584 24.576 7.168 30.208 11.776l-12.288 67.584q-15.36-7.168-26.112-11.264t-20.48-6.656-19.968-3.584-22.528-1.024q-65.536 0-104.96 49.152t-39.424 134.144q0 70.656 32.768 115.2t88.064 44.544q48.128 0 86.528-26.624t68.096-68.096 50.176-90.624 33.792-94.208v-386.048h68.608v332.8q54.272-78.848 137.216-78.848 28.672 0 54.272 6.144t44.544 24.576 29.696 52.224 10.752 89.088v171.008q0 67.584 39.936 67.584 11.264 0 19.968-4.608t26.112-15.872z"></path>
</svg>
