<!-- Generated by IcoMoon.io -->
<svg version="1.1" xmlns="http://www.w3.org/2000/svg" width="793" height="1024" viewBox="0 0 793 1024">
<title></title>
<g id="icomoon-ignore">
</g>
<path d="M756.436 354.304q-14.336-3.072-22.016-4.608t-17.92-1.536q-30.72 0-55.808 15.36t-43.008 43.008-27.648 66.56-9.728 86.016v177.152h-68.608v-204.8q-19.456 39.936-49.152 78.848t-67.584 69.632-81.408 50.176-90.624 19.456q-88.064 0-138.752-58.88t-50.688-160.256q0-56.32 14.848-103.424t41.984-80.896 65.024-52.736 82.944-18.944q68.608 0 107.52 34.304t38.912 95.744q0 71.68-59.392 111.616t-167.936 39.936h-23.040t-27.136-2.048q6.144 61.44 37.888 95.744t83.968 34.304q51.2 0 96.256-27.136t81.92-67.584 63.488-89.088 40.96-91.648q-1.024-35.84-4.608-62.464t-11.776-60.416h68.608q3.072 12.288 5.632 22.016t3.584 20.48 2.048 24.064 1.024 32.768q24.576-58.368 55.296-83.456t76.8-25.088q16.384 0 26.112 2.56t25.088 10.752zM310.996 402.432q0-26.624-19.968-46.080t-49.664-19.456q-24.576 0-47.104 12.8t-40.96 34.304-30.208 49.152-14.848 57.344q17.408 2.048 27.136 3.072t23.040 1.024q69.632 0 111.104-25.088t41.472-67.072z"></path>
</svg>
