<svg width="413" height="420" xmlns="http://www.w3.org/2000/svg">
 <title/>

 <g>
  <title>background</title>
  <rect fill="none" id="canvas_background" height="422" width="415" y="-1" x="-1"/>
 </g>
 <g>
  <title>Layer 1</title>
  <g id="icomoon-ignore"/>
  <path d="m175.29201,379.654544q-32.613268,18.293214 -63.155853,18.293214q-47.625725,0 -74.026942,-29.791806t-26.401217,-83.626123q0,-60.106276 28.989572,-94.602052t79.203652,-34.495776q8.282735,0 14.753621,0.522663t12.424102,1.829321t12.424102,3.658643t15.271292,6.010628l-6.212051,34.495776q-7.765064,-3.658643 -13.200609,-5.749296t-10.353419,-3.397311t-10.094583,-1.829321t-11.38876,-0.522663q-33.130939,0 -53.06127,25.087837t-19.930331,68.468888q0,36.063766 16.56547,58.276954t44.5197,22.213189q15.012457,0 28.989572,-4.703969t32.095597,-15.157235l2.588355,35.018439z"/>
  <path d="m400.319999,387.637655q-16.303336,12.499224 -35.867336,12.499224q-15.216448,0 -28.530836,-9.510276t-30.161164,-32.33494l-64.12644,-85.864224l0,124.992215l-36.954224,0l0,-379.867655l35.867336,0l0,175.532552q19.564,-43.475552 60.865776,-43.475552q13.042664,0 24.455,4.347552t19.835715,11.955776t13.314388,18.205388t4.891,22.552948q0,25.541888 -19.292276,42.932112t-55.159612,24.99844l51.083784,67.930552q15.759888,21.737784 34.236991,21.737784q6.521336,0 11.955784,-1.90206t13.042664,-7.87994l0.543448,33.150103zm-75.538784,-177.162879q0,-11.955776 -7.336491,-19.292276t-18.748836,-7.3365q-18.477112,0 -33.965276,20.379164t-21.46606,52.985828q16.303336,-0.54344 31.24806,-4.619276t26.085328,-10.32544t17.661948,-14.401276t6.521328,-17.390224z"/>
 </g>
</svg>