<!-- Generated by IcoMoon.io -->
<svg version="1.1" xmlns="http://www.w3.org/2000/svg" width="1036" height="1024" viewBox="0 0 1036 1024">
<title></title>
<g id="icomoon-ignore">
</g>
<path d="M994.672 627.2q0 142.336-56.32 208.384t-152.576 66.048q-40.96 0-77.824-9.728t-72.704-33.28l3.072-61.44q35.84 23.552 71.168 35.84t66.048 12.288q40.96 0 69.632-16.384t46.080-45.568 25.6-70.144 8.192-89.088q1.024-2.048 1.024-20.992v-42.496q0-26.624-1.024-61.44-25.6 49.152-61.44 72.704t-94.208 23.552q-61.44 0-104.448-34.816t-57.344-97.28q-1.024 1.024-1.024 2.048v1.024q-9.216 21.504-22.016 44.544t-31.232 41.984-43.52 31.744-57.856 12.8q-46.080 0-75.264-30.208t-29.184-88.576v-176.128q0-57.344-20.992-86.016t-57.856-28.672q-27.648 0-52.224 14.336t-43.52 41.984-30.208 67.072-11.264 89.6v185.344h-71.68v-311.296q0-35.84-5.12-73.728t-13.312-65.536h70.656q3.072 7.168 5.12 17.92t4.096 22.528 3.584 23.552 1.536 19.968q0 1.024 0.512 8.192t0.512 16.384q24.576-59.392 66.048-90.624t95.744-31.232q61.44 0 97.792 43.52t36.352 126.464v164.864q0 17.408 2.048 33.28t7.68 27.648 15.36 18.944 24.064 7.168q18.432 0 37.888-17.92t35.84-43.008 29.184-52.224 18.944-45.568v-13.312q1.024-55.296 18.432-101.376t52.224-79.36 86.016-51.2 118.784-17.92q19.456 0 34.304 1.536t28.672 4.608 28.672 7.168 33.28 9.216v482.304zM925.040 202.24q-15.36-5.12-34.304-10.24t-38.4-5.12q-87.040 0-134.144 53.248t-47.104 145.408q0 64.512 29.184 103.936t84.48 39.424q67.584 0 103.936-53.248t36.352-163.84v-109.568z"></path>
</svg>
