<!-- Generated by IcoMoon.io -->
<svg version="1.1" xmlns="http://www.w3.org/2000/svg" width="1066" height="1024" viewBox="0 0 1066 1024">
<title></title>
<g id="icomoon-ignore">
</g>
<path d="M934.408 862.208v-283.648q0-63.488-32.256-90.624t-87.552-27.136q-36.864 0-69.632 18.432t-56.832 48.128-38.4 67.072-14.336 75.264v192.512h-74.752v-136.192q-19.456 30.72-45.056 57.856t-57.856 47.616-70.656 32.768-83.456 12.288q-75.776 0-119.808-32.256t-44.032-111.104v-270.336h-81.92v-51.2h82.944v-109.568h68.608v109.568h182.272v50.176h-182.272v259.072q0 52.224 32.768 77.824t81.92 23.552q41.984-1.024 79.36-22.016t68.096-51.2 53.248-64.512 35.84-62.976v-474.112h73.728v375.808q29.696-55.296 78.848-90.112t120.832-34.816q32.768 0 64 7.68t55.808 26.112 39.424 49.664 14.848 78.336v302.080h-73.728z"></path>
</svg>
