<!-- Generated by IcoMoon.io -->
<svg version="1.1" xmlns="http://www.w3.org/2000/svg" width="380" height="1024" viewBox="0 0 380 1024">
<title></title>
<g id="icomoon-ignore">
</g>
<path d="M337.968 627.2q0 56.32-39.424 90.112t-108.032 33.792q-43.008 0-78.848-10.24t-69.632-33.792l15.36-62.464q29.696 22.528 64 34.304t64 11.776q77.824 0 77.824-63.488 0-21.504-15.872-38.912t-51.712-40.96q-36.864-24.576-62.464-44.032t-40.96-37.376-22.528-36.352-7.168-40.96q0-53.248 37.888-84.48t103.424-31.232q32.768 0 65.536 7.68t65.536 28.16l-10.24 66.56q-32.768-22.528-64.512-31.232t-58.368-8.704q-25.6 0-44.544 11.264t-18.944 41.984q0 23.552 24.576 43.008t73.728 52.224q26.624 18.432 46.080 33.792t31.744 31.232 17.92 34.816 5.632 43.52z"></path>
</svg>
