<!-- Generated by IcoMoon.io -->
<svg version="1.1" xmlns="http://www.w3.org/2000/svg" width="948" height="1024" viewBox="0 0 948 1024">
<title></title>
<g id="icomoon-ignore">
</g>
<path d="M880.016 560.64v31.744t-0.512 43.008-0.512 49.664v177.664h-73.728v-289.792q0-56.32-19.968-82.944t-64-26.624q-29.696 0-53.248 18.944t-40.448 49.664-26.112 69.12-9.216 76.288v185.344h-76.8v-134.144q-16.384 25.6-39.936 51.712t-53.76 47.616-67.072 34.816-79.872 13.312q-47.104 0-85.504-15.36t-65.024-44.032-41.472-70.656-14.848-94.208q0-117.76 58.88-184.832t164.352-67.072q35.84 0 58.88 6.656t47.616 17.92l-11.264 62.464q-25.6-11.264-43.008-16.896t-44.032-5.632q-35.84 0-64.512 13.312t-48.64 37.888-30.72 58.368-10.752 74.752q0 35.84 9.728 66.56t27.648 52.736 44.032 34.304 59.904 12.288q38.912 0 73.216-16.384t63.488-41.984 52.224-57.344 40.448-62.464v-488.448h73.728v368.64q24.576-55.296 58.88-86.528t92.672-31.232q28.672 0 53.76 7.168t44.032 25.6 30.208 49.664 11.264 79.36z"></path>
</svg>
