<!-- Generated by IcoMoon.io -->
<svg version="1.1" xmlns="http://www.w3.org/2000/svg" width="1062" height="1024" viewBox="0 0 1062 1024">
<title></title>
<g id="icomoon-ignore">
</g>
<path d="M918.584 736.768v-91.136q-9.216 19.456-24.064 37.888t-34.304 32.768-41.984 23.040-47.104 8.704q-75.776 0-121.856-55.296t-46.080-160.768q0-57.344 16.896-102.912t49.664-76.288q-25.6 2.048-53.248 3.584t-45.056 1.536q-23.552 0-55.296-2.048t-60.416-7.168q22.528 27.648 34.816 67.072t12.288 90.624q0 118.784-57.856 182.272t-156.16 63.488q-99.328 0-155.648-60.928t-56.32-176.64q0-116.736 57.344-179.712t156.672-62.976q52.224 0 91.136 16.384 48.128 8.192 93.184 12.8t91.136 4.608q52.224 0 101.888-3.584t85.504-9.728q23.552-8.192 49.664-12.288t55.808-4.096q41.984 0 69.632 5.632t56.32 16.896v438.272h-66.56zM917.56 352.768q-18.432-5.12-37.888-8.704t-35.84-3.584q-75.776 0-122.368 53.248t-46.592 146.432q0 28.672 7.68 54.784t22.016 46.080 35.328 31.744 47.616 11.776q21.504 0 44.032-11.776t41.984-34.816 31.744-55.808 12.288-75.776v-153.6zM428.088 504.32q0-77.824-34.816-124.416t-102.4-46.592q-68.608 0-102.912 50.688t-34.304 134.656q0 78.848 33.792 124.928t101.376 46.080q33.792 0 59.904-13.312t43.52-37.888 26.624-58.88 9.216-75.264z"></path>
</svg>
