<!-- Generated by IcoMoon.io -->
<svg version="1.1" xmlns="http://www.w3.org/2000/svg" width="1024" height="1024" viewBox="0 0 1024 1024">
<title></title>
<g id="icomoon-ignore">
</g>
<path d="M991.744 722.432q-19.456 13.312-35.328 18.432t-34.304 5.12q-70.656 0-83.968-75.776-52.224 77.824-135.168 77.824-69.632 0-106.496-43.52t-36.864-143.872q0-32.768 0.512-59.904t0.512-52.224-1.024-49.664-3.072-52.224q-19.456 5.12-45.568 8.704t-47.616 3.584q-22.528 0-38.4-1.536t-30.208-3.584q18.432 29.696 28.672 67.072t10.24 83.456q0 114.688-53.76 180.736t-147.968 66.048-146.944-61.952-52.736-172.544q0-113.664 53.76-178.688t148.992-65.024q27.648 0 51.712 5.632t48.128 11.776 50.176 11.776 58.88 5.632q28.672 0 59.392-6.144t46.080-15.36h73.728q4.096 38.912 5.632 71.168t2.048 62.464 0 62.464-0.512 71.168q0 68.608 15.872 100.864t61.952 32.256q25.6 0 48.64-11.776t39.936-33.28 26.624-51.2 9.728-66.56v-237.568h70.656v331.776q0 68.608 41.984 68.608 9.216 0 17.92-3.584t28.16-14.848v54.272zM360.96 502.272q0-79.872-32.768-122.88t-93.184-43.008q-61.44 0-94.72 47.616t-33.28 137.728q0 79.872 31.744 122.368t92.16 42.496 95.232-49.152 34.816-135.168z"></path>
</svg>
