<!-- Generated by IcoMoon.io -->
<svg version="1.1" xmlns="http://www.w3.org/2000/svg" width="846" height="1024" viewBox="0 0 846 1024">
<title></title>
<g id="icomoon-ignore">
</g>
<path d="M809.56 354.816q-14.336-3.072-22.016-4.608t-17.92-1.536q-30.72 0-55.808 15.36t-43.008 43.008-27.648 66.56-9.728 86.016v177.152h-68.608v-302.080q0-28.672-1.024-49.664t-4.096-41.472q-18.432 5.12-47.104 9.728t-52.224 4.608q-20.48 0-35.328-0.512t-28.16-2.56q37.888 58.368 37.888 149.504 0 114.688-53.76 180.736t-147.968 66.048-146.944-61.952-52.736-172.544q0-113.664 53.76-178.688t148.992-65.024q27.648 0 49.664 5.12t46.080 11.776 52.224 11.776 67.072 5.12q13.312 0 29.696-1.536t31.232-4.096 27.136-6.144 19.456-8.704h58.368q3.072 12.288 5.632 22.016t3.584 20.48 2.048 24.064 1.024 32.768q24.576-58.368 55.296-83.456t76.8-25.088q16.384 0 26.112 2.56t25.088 10.752zM362.072 502.272q0-79.872-32.768-122.88t-93.184-43.008q-61.44 0-94.72 47.616t-33.28 137.728q0 79.872 31.744 122.368t92.16 42.496 95.232-49.152 34.816-135.168z"></path>
</svg>
