<!-- Generated by IcoMoon.io -->
<svg version="1.1" xmlns="http://www.w3.org/2000/svg" width="853" height="1024" viewBox="0 0 853 1024">
<title></title>
<g id="icomoon-ignore">
</g>
<path d="M809.988 354.304q-14.336-3.072-22.016-4.608t-17.92-1.536q-30.72 0-55.808 15.36t-43.008 43.008-27.648 66.56-9.728 86.016v177.152h-68.608v-103.424q-11.264 19.456-24.064 39.936t-29.184 36.864-37.376 27.136-47.616 10.752q-35.84 0-58.88-21.504t-28.16-61.44q-53.248 83.968-136.192 83.968-35.84 0-65.536-13.824t-51.712-41.472-34.304-68.608-12.288-94.208q0-58.368 16.896-105.472t48.128-80.384 75.776-51.2 98.816-17.92q19.456 0 34.304 1.024t29.184 3.584 29.184 6.656 35.328 11.264v328.704q0 60.416 43.008 60.416 12.288 0 30.208-20.48t34.816-48.64 30.72-57.344 18.944-46.592v-79.872q0-23.552-0.512-42.496t-2.56-35.84-5.12-33.792-8.192-36.352h68.608q3.072 12.288 5.632 22.016t3.584 20.48 2.048 24.064 1.024 32.768q24.576-58.368 55.296-83.456t76.8-25.088q16.384 0 26.112 2.56t25.088 10.752zM336.9 354.304q-21.504-7.168-33.792-9.216t-31.744-2.048q-73.728 0-114.688 52.224t-40.96 147.456q0 65.536 24.576 99.84t71.68 34.304q58.368 0 91.648-51.2t33.28-140.288v-131.072z"></path>
</svg>
