<!-- Generated by IcoMoon.io -->
<svg version="1.1" xmlns="http://www.w3.org/2000/svg" width="512" height="1024" viewBox="0 0 512 1024">
<title></title>
<g id="icomoon-ignore">
</g>
<path d="M444.928 613.376q0 60.416-14.848 108.544t-42.496 82.432-66.56 52.736-87.040 18.432q-41.984 0-86.016-11.264t-80.896-31.744v-684.032h65.536v328.704q27.648-38.912 61.952-57.344t80.384-18.432q80.896 0 125.44 55.808t44.544 156.16zM369.152 616.448q0-71.68-28.672-110.592t-72.704-38.912q-27.648 0-51.2 12.288t-41.472 40.448-28.16 73.728-10.24 112.128v84.992q12.288 8.192 21.504 12.8t18.432 7.168 18.944 3.584 23.040 1.024q71.68 0 111.104-51.712t39.424-146.944z"></path>
</svg>
