<!-- Generated by IcoMoon.io -->
<svg version="1.1" xmlns="http://www.w3.org/2000/svg" width="512" height="1024" viewBox="0 0 512 1024">
<title></title>
<g id="icomoon-ignore">
</g>
<path d="M483.328 721.92q-31.744 25.6-71.68 25.6-41.984 0-66.56-31.744t-24.576-86.016v-179.2q0-51.2-17.408-77.824t-49.152-26.624q-29.696 0-53.76 14.336t-41.984 40.448-27.648 62.464-9.728 81.408v193.536h-71.68v-306.176q0-36.864-6.144-78.336t-14.336-66.048h69.632q3.072 9.216 5.632 15.36t4.096 13.824 3.072 18.432 3.584 27.136q33.792-47.104 66.048-66.56t76.288-19.456q65.536 0 101.888 45.056t36.352 126.976v174.080q0 29.696 11.264 46.592t30.72 16.896q9.216 0 18.432-3.584t26.624-13.824z"></path>
</svg>
