<!-- Generated by IcoMoon.io -->
<svg version="1.1" xmlns="http://www.w3.org/2000/svg" width="972" height="1024" viewBox="0 0 972 1024">
<title></title>
<g id="icomoon-ignore">
</g>
<path d="M939.632 399.872q0 31.744-15.36 58.88t-44.544 47.104-73.216 31.744-100.352 11.776q-14.336 0-29.184-1.536t-32.256-2.56q1.024 29.696 9.216 57.344t24.576 48.128 41.472 32.768 59.904 12.288q29.696 0 60.928-10.752t62.976-28.16v58.368q-32.768 19.456-64 27.648t-69.12 8.192q-72.704 0-120.32-34.816t-67.072-102.4q-9.216 23.552-23.040 47.104t-32.256 43.008-41.984 31.744-51.2 12.288q-22.528 0-37.888-8.704t-25.6-23.040-15.36-31.744-8.192-34.816q-19.456 39.936-58.88 70.144t-95.744 30.208q-70.656 0-112.128-40.448t-40.448-135.68q0-40.96 0.512-76.288t0.512-69.12-2.048-67.584-7.168-73.728h70.656q4.096 40.96 5.632 74.24t1.536 64-1.024 60.928-1.024 65.024q0 64.512 23.040 99.84t75.264 35.328q55.296 0 90.624-43.008t35.328-122.88v-233.472h68.608v324.608q0 35.84 12.288 59.392t41.984 23.552q16.384 0 33.792-16.384t32.768-39.936 28.16-49.664 19.968-45.568q1.024-6.144 1.024-11.776v-11.776q0-53.248 17.408-98.304t47.104-77.824 69.12-51.712 85.504-18.944q70.656 0 110.080 35.84t39.424 91.136zM865.904 401.92q0-30.72-22.528-52.224t-56.32-21.504q-31.744 0-56.832 15.872t-43.008 40.448-27.648 53.76-10.752 55.808q16.384 2.048 31.232 3.584t30.208 1.536q32.768 0 61.44-6.144t49.664-18.432 32.768-30.208 11.776-42.496z"></path>
</svg>
