<!-- Generated by IcoMoon.io -->
<svg version="1.1" xmlns="http://www.w3.org/2000/svg" width="519" height="1024" viewBox="0 0 519 1024">
<title></title>
<g id="icomoon-ignore">
</g>
<path d="M295.34 275.968q35.84 0 64 6.656t48.64 14.848q23.552 10.24 43.008 21.504v417.792h-67.584v-80.896q-11.264 18.432-26.112 34.816t-33.792 29.184-40.448 20.48-46.080 7.68q-75.776 0-122.368-55.296t-46.592-160.768q0-59.392 17.92-106.496t49.152-80.384 72.704-51.2 87.552-17.92zM381.356 502.272v-138.24q-10.24-7.168-29.184-14.848t-43.52-7.68q-75.776 0-120.32 52.736t-44.544 145.92q0 28.672 7.168 54.784t20.992 45.568 33.792 31.232 46.592 11.776q21.504 0 44.544-12.288t41.984-35.328 30.72-56.832 11.776-76.8z"></path>
</svg>
