<!-- Generated by IcoMoon.io -->
<svg version="1.1" xmlns="http://www.w3.org/2000/svg" width="981" height="1024" viewBox="0 0 981 1024">
<title></title>
<g id="icomoon-ignore">
</g>
<path d="M929.796 404.48q0 71.68-59.392 111.616t-167.936 39.936h-23.040t-27.136-2.048q6.144 61.44 37.888 95.744t83.968 34.304q59.392 0 122.88-44.032v70.656q-32.768 20.48-62.976 29.696t-66.048 9.216q-71.68 0-119.296-39.936t-62.976-110.592q-10.24 21.504-22.528 46.592t-30.72 47.616-45.056 37.376-63.488 14.848q-70.656 0-83.968-75.776-52.224 77.824-135.168 77.824-69.632 0-106.496-43.52t-36.864-143.872q0-40.96 0.512-73.728t0-64-2.56-64-8.192-72.704h73.728q4.096 38.912 5.632 71.168t2.048 62.464 0 62.464-0.512 71.168q0 68.608 15.872 100.864t61.952 32.256q25.6 0 48.64-11.776t39.936-33.28 26.624-51.2 9.728-66.56v-237.568h70.656v331.776q0 68.608 41.984 68.608 19.456 0 40.448-24.576t40.448-58.368 33.792-68.096 19.456-53.76q6.144-46.080 23.552-84.48t43.52-65.536 60.416-41.984 74.24-14.848q68.608 0 107.52 34.304t38.912 95.744zM856.068 402.432q0-26.624-19.968-46.080t-49.664-19.456q-24.576 0-47.104 12.8t-40.96 34.304-30.208 49.152-14.848 57.344q17.408 2.048 27.136 3.072t23.040 1.024q69.632 0 111.104-25.088t41.472-67.072z"></path>
</svg>
