<!-- Generated by IcoMoon.io -->
<svg version="1.1" xmlns="http://www.w3.org/2000/svg" width="918" height="1024" viewBox="0 0 918 1024">
<title></title>
<g id="icomoon-ignore">
</g>
<path d="M869.112 404.48q0 71.68-59.392 111.616t-167.936 39.936h-23.040t-27.136-2.048q6.144 61.44 37.888 95.744t83.968 34.304q59.392 0 122.88-44.032v70.656q-32.768 20.48-62.976 29.696t-66.048 9.216q-80.896 0-130.56-50.176t-57.856-138.24q-21.504 34.816-52.224 68.608t-67.072 60.416-77.312 43.008-83.968 16.384q-88.064 0-138.752-58.88t-50.688-160.256q0-56.32 14.848-103.424t41.984-80.896 65.024-52.736 82.944-18.944q68.608 0 107.52 34.304t38.912 95.744q0 71.68-59.392 111.616t-167.936 39.936h-23.040t-27.136-2.048q6.144 61.44 37.888 95.744t83.968 34.304q49.152 0 92.672-23.552t80.384-59.904 65.024-79.36 46.592-81.92q20.48-75.776 71.68-120.32t121.856-44.544q68.608 0 107.52 34.304t38.912 95.744zM795.384 402.432q0-26.624-19.968-46.080t-49.664-19.456q-24.576 0-47.104 12.8t-40.96 34.304-30.208 49.152-14.848 57.344q17.408 2.048 27.136 3.072t23.040 1.024q69.632 0 111.104-25.088t41.472-67.072zM326.392 402.432q0-26.624-19.968-46.080t-49.664-19.456q-24.576 0-47.104 12.8t-40.96 34.304-30.208 49.152-14.848 57.344q17.408 2.048 27.136 3.072t23.040 1.024q69.632 0 111.104-25.088t41.472-67.072z"></path>
</svg>
