<!-- Generated by IcoMoon.io -->
<svg version="1.1" xmlns="http://www.w3.org/2000/svg" width="760" height="1024" viewBox="0 0 760 1024">
<title></title>
<g id="icomoon-ignore">
</g>
<path d="M728.672 722.432q-15.36 14.336-31.232 19.968t-38.4 5.632q-91.136 0-91.136-124.928v-182.272q0-98.304-68.608-98.304-49.152 0-80.384 39.936t-31.232 113.664v241.664h-70.656v-276.48q0-58.368-18.432-86.528t-58.368-28.16q-24.576 0-45.568 11.776t-36.864 33.28-25.088 50.688-9.216 64v231.424h-71.68v-291.84q0-48.128-4.608-84.48t-15.872-74.24h70.656q6.144 21.504 9.216 34.304t6.144 35.328q27.648-45.056 56.32-62.976t72.704-17.92q81.92 0 123.904 76.8 23.552-37.888 58.368-57.344t75.776-19.456q63.488 0 98.816 43.52t35.328 128.512v158.72q0 44.032 9.728 62.464t33.28 18.432q10.24 0 19.968-3.584t27.136-14.848v53.248z"></path>
</svg>
