<!-- Generated by IcoMoon.io -->
<svg version="1.1" xmlns="http://www.w3.org/2000/svg" width="511" height="1024" viewBox="0 0 511 1024">
<title></title>
<g id="icomoon-ignore">
</g>
<path d="M472.076 850.944q-21.504 13.312-37.376 18.432t-34.304 5.12q-44.032 0-67.584-32.256t-23.552-94.72v-179.2q0-49.152-16.896-72.192t-55.808-23.040q-26.624 0-49.664 14.848t-39.936 39.936-26.624 59.392-9.728 72.192v205.824h-71.68v-715.776h68.608v332.8q54.272-78.848 137.216-78.848 28.672 0 54.272 6.144t44.544 24.576 29.696 52.224 10.752 89.088v171.008q0 67.584 39.936 67.584 11.264 0 19.968-4.608t26.112-15.872z"></path>
</svg>
