<!-- Generated by IcoMoon.io -->
<svg version="1.1" xmlns="http://www.w3.org/2000/svg" width="901" height="1024" viewBox="0 0 901 1024">
<title></title>
<g id="icomoon-ignore">
</g>
<path d="M881.604 848.896q-21.504 13.312-37.376 18.432t-34.304 5.12q-44.032 0-67.584-32.256t-23.552-94.72v-179.2q0-49.152-16.896-72.192t-55.808-23.040q-26.624 0-49.664 14.848t-39.936 39.936-26.624 59.392-9.728 72.192v205.824h-71.68v-196.608q-20.48 43.008-49.664 81.408t-64.512 67.072-77.312 45.056-89.088 16.384q-81.92 0-148.48-44.032l15.36-62.464q30.72 21.504 62.976 33.792t61.952 12.288q36.864 0 59.392-17.408t22.528-44.032q0-21.504-15.872-39.936t-51.712-41.984q-36.864-24.576-62.464-44.032t-41.472-37.888-23.040-36.864-7.168-40.96q0-53.248 37.888-83.968t103.424-30.72q63.488 0 131.072 35.84l-10.24 64.512q-35.84-18.432-66.048-28.16t-56.832-9.728q-29.696 0-47.104 14.336t-17.408 37.888q0 12.288 4.608 22.016t15.36 19.968 27.136 22.016 40.96 27.136q27.648 18.432 48.64 34.816t35.328 33.792 21.504 37.376 7.168 44.544v8.192q26.624-23.552 48.128-51.712t37.888-56.832 28.16-56.32 18.944-51.2v-399.36h68.608v332.8q54.272-78.848 137.216-78.848 28.672 0 54.272 6.144t44.544 24.576 29.696 52.224 10.752 89.088v171.008q0 67.584 39.936 67.584 11.264 0 19.968-4.608t26.112-15.872z"></path>
</svg>
