<!-- Generated by IcoMoon.io -->
<svg version="1.1" xmlns="http://www.w3.org/2000/svg" width="449" height="1024" viewBox="0 0 449 1024">
<title></title>
<g id="icomoon-ignore">
</g>
<path d="M400.116 404.48q0 71.68-59.392 111.616t-167.936 39.936h-23.040t-27.136-2.048q6.144 61.44 37.888 95.744t83.968 34.304q59.392 0 122.88-44.032v70.656q-32.768 20.48-62.976 29.696t-66.048 9.216q-88.064 0-138.752-58.88t-50.688-160.256q0-56.32 14.848-103.424t41.984-80.896 65.024-52.736 82.944-18.944q68.608 0 107.52 34.304t38.912 95.744zM326.388 402.432q0-26.624-18.944-46.592t-51.712-19.968q-25.6 0-48.64 13.312t-40.448 35.328-28.672 50.176-14.336 57.856q17.408 2.048 27.136 2.048h23.040q69.632 0 111.104-25.088t41.472-67.072z"></path>
</svg>
