<!-- Generated by IcoMoon.io -->
<svg version="1.1" xmlns="http://www.w3.org/2000/svg" width="1074" height="1024" viewBox="0 0 1074 1024">
<title></title>
<g id="icomoon-ignore">
</g>
<path d="M939.432 588.8v-83.968q-7.168 18.432-19.968 34.816t-31.232 29.696-40.448 20.992-47.616 7.68q-35.84 0-64-12.288t-45.568-40.96q-23.552 82.944-62.976 148.48t-77.312 111.616q-45.056 54.272-93.184 94.208l-62.464-4.096v-394.24q-28.672 55.296-67.072 76.8t-88.576 21.504q-77.824 0-125.44-54.784t-47.616-151.040q0-60.416 16.384-109.568t49.664-84.48 82.432-54.784 113.664-19.456q40.96 0 71.168 6.144t66.048 19.456v665.6q50.176-51.2 91.136-113.664 16.384-26.624 32.768-58.368t29.696-67.072 20.992-74.24 7.68-80.896q0-36.864 0.512-71.68t0.512-69.12-2.048-69.632-7.168-73.216h73.728q4.096 40.96 5.632 74.24t1.536 64-1.024 61.44-1.024 64.512q0 64.512 21.504 99.84t73.728 35.328q55.296 0 88.064-46.080t32.768-125.952v-227.328h73.728v450.56h-68.608zM396.712 205.824q-19.456-9.216-35.328-12.288t-39.424-3.072q-87.040 0-133.632 54.272t-46.592 148.48q0 64.512 27.648 102.912t81.92 38.4q34.816 0 61.952-14.848t45.568-41.984 28.16-64 9.728-80.896v-126.976z"></path>
</svg>
