<!-- Generated by IcoMoon.io -->
<svg version="1.1" xmlns="http://www.w3.org/2000/svg" width="528" height="1024" viewBox="0 0 528 1024">
<title></title>
<g id="icomoon-ignore">
</g>
<path d="M395.072 863.744l-5.12-68.608q-21.504 38.912-64.512 59.904t-88.064 20.992q-38.912 0-71.168-15.36t-54.784-44.032-34.816-68.096-12.288-88.576q0-56.32 15.36-103.936t43.52-81.92 67.072-53.248 86.016-18.944q27.648 0 52.736 3.072t55.808 13.312v-270.336h72.704v561.152q0 83.968 3.072 120.832 1.024 21.504 3.072 33.792h-68.608zM385.856 483.84q-22.528-10.24-46.592-14.848t-47.616-4.608q-33.792 0-61.44 14.848t-47.104 41.472-30.208 63.488-10.752 81.92q0 64.512 26.112 102.4t71.168 37.888q30.72 0 57.344-11.264t46.592-37.376 31.232-69.12 11.264-105.472v-99.328z"></path>
</svg>
